<svg xmlns="http://www.w3.org/2000/svg" width="443.901" height="442" viewBox="0 0 443.901 442"><defs><style>.a{fill:#fff;}.b{fill:#d8fff9;}.c{fill:#e2e2e0;}.d{fill:#d3ecff;}.e{fill:#ad58b2;}.f{fill:#5252f7;}.g{fill:#c171bf;}.h{fill:#cd83c8;}.i{fill:#7272fc;}.j{fill:#c9c9ff;}.k{fill:#ededeb;}.l{fill:#dfa1d5;}.m{fill:#efc1e4;}.n{fill:#e4aedb;}.o{fill:#9292f5;}.p{fill:#273e47;}.q{fill:#17282f;}.r{fill:#33535f;}.s{fill:#acafad;}.t{fill:#1d2f36;}.u{fill:#9b43a7;}.v{fill:#111d23;}.w{fill:#13b59c;}.x{fill:#0f6c5d;}.y{fill:#1cb59c;}.z{fill:#128976;}.aa{fill:#dadbd8;}.ab{fill:#fafaf9;}.ac{fill:#e7e8e5;}.ad{fill:#fbfbfa;}.ae{fill:#dbdcd9;}.af{fill:#b0b2b0;}.ag{fill:#ced0cd;}.ah{fill:#ffd800;}.ai{fill:#ffe65c;}.aj{fill:#fed831;}.ak{fill:#e3e3ff;}.al{fill:#bfc0be;}.am{fill:#c3c5c2;}.an{fill:#ac63b7;}.ao{fill:#a34dac;}.ap{fill:#c0c1bf;}</style></defs><g transform="translate(-6.866 613.344)"><path class="a" d="M28.781-274.514l-.166-.025a75.474,75.474,0,0,0-16.209-2.613.564.564,0,0,1-.539-.586.547.547,0,0,1,.586-.539,76.838,76.838,0,0,1,16.495,2.663.562.562,0,0,1,.371.7.562.562,0,0,1-.537.4" transform="translate(-3.315 -93.604)"/><path class="b" d="M74.537-136.882c-86.678-50.042-86.678-131.177,0-181.22s227.208-50.042,313.886,0,86.677,131.178,0,181.22-227.207,50.042-313.886,0" transform="translate(-2.662 -71.994)"/><path class="c" d="M140.178-261.5c47.01-27.141,123.223-27.141,170.232,0,39.846,23.006,45.9,58.124,18.193,84.821l103.436,58.963c6.3,3.64,6.3,9.54,0,13.181l-9.3,5.367c-6.305,3.64-16.354,3.358-22.445-.628l-90.35-63.17c-47.042,26.88-122.912,26.8-169.771-.251-47.008-27.14-47.008-71.142,0-98.282" transform="translate(-29.311 -92.604)"/><path class="d" d="M161.735-586.418l-8.157,4.709a9.878,9.878,0,0,0,.068-1.081v-2.363c0-4.2-2.952-5.908-6.592-3.806a12.748,12.748,0,0,0-3.93,3.778c-.6-5.287-4.746-7.256-9.783-4.347-5.448,3.145-9.864,10.794-9.864,17.085v3.535a9.307,9.307,0,0,0,.835,4.1l-6.775,3.912a8.085,8.085,0,0,0-3.657,6.335c0,2.333,1.637,3.277,3.657,2.111l44.2-25.517a8.084,8.084,0,0,0,3.657-6.335c0-2.332-1.637-3.277-3.657-2.111" transform="translate(-31.813 -6.277)"/><path class="d" d="M28.83-569.53l4.6-3.541V-583.2c0-8.029,6.4-17.349,13.358-21.364s12.59-.76,12.59,7.269v1.471a17.955,17.955,0,0,1,5.842-5.846c5-2.889,9.06-.548,9.06,5.23v.669l6.411-3.7c3.3-1.9,5.966-.36,5.966,3.445a13.188,13.188,0,0,1-5.966,10.334L28.83-555.751c-3.3,1.9-5.966.36-5.966-3.445A13.188,13.188,0,0,1,28.83-569.53" transform="translate(-6.387 -1.973)"/><path class="e" d="M330.195-253.147c0,12.7-9.331,25.079-26.271,34.86-18.738,10.817-43.87,16.775-70.77,16.775s-52.035-5.957-70.77-16.775c-16.94-9.781-26.271-22.161-26.271-34.86s9.328-25.081,26.271-34.862c18.735-10.817,43.869-16.775,70.77-16.775s52.035,5.958,70.77,16.775c16.943,9.78,26.271,22.162,26.271,34.862m-204.471,0v29.24c0,15.873,10.488,31.747,31.465,43.857,41.955,24.222,109.975,24.222,151.93,0,20.977-12.11,31.465-27.984,31.466-43.857v-29.24c0-15.873-10.489-31.746-31.466-43.858-41.954-24.222-109.974-24.222-151.929,0-20.977,12.112-31.464,27.985-31.466,43.858h0" transform="translate(-35.122 -83.297)"/><path class="f" d="M232.635-168.321c-15.416,0-30.238-1.836-42.252-5.8-30.781-10.162-43.1-28.862-45.6-43.754a88.437,88.437,0,0,0,12.428,8.588c20.978,12.112,48.472,18.167,75.966,18.167s54.987-6.055,75.964-18.167c20.687-11.943,31.173-27.546,31.458-43.2v28.581c0,9.005-3.375,18.009-10.127,26.328h0c6.067-7.477,9.407-15.509,10.021-23.6-1.247,7.5-4.028,13.619-12.767,22.027l-8.989-5.141,0,0-.018-.011,0,0a3.871,3.871,0,0,0-1.927-.482,6.794,6.794,0,0,0-3.372,1.04,16.643,16.643,0,0,0-7.473,13.045v.022c.011,2.412.869,4.1,2.246,4.872l0,0,1.394.8c-18.488,10.519-48.7,16.682-76.937,16.683m77.244-12.168q1.879-1.107,3.646-2.254h0q-1.766,1.146-3.646,2.254m-5.891-37.826.006,0-.006,0m.047-.027.01-.006-.01.006m.051-.03,0,0,0,0m.249-.145h0m.148-.086h0m.046-.027.006,0-.006,0m.149-.087.008,0-.008,0m.042-.026.019-.011-.019.011m.047-.027.017-.011-.017.011m.043-.026.021-.013-.021.013m.041-.025c.018-.01.034-.019.051-.03l-.051.03m.063-.037.035-.02-.035.02m.041-.024.036-.021-.036.021m.04-.024a71.893,71.893,0,0,0,13.512-10.173,44.784,44.784,0,0,0,7.511-9.442h0a34.151,34.151,0,0,0,1.675-3.249c-3.713,8.317-11.457,16.175-22.7,22.863M125.756-254.428c.549-15.444,11.029-30.792,31.443-42.578,12.334-7.121,26.92-12.148,42.436-15.082h0c-15.513,2.934-30.1,7.962-42.431,15.081-10.615,6.128-18.542,13.218-23.785,20.785a40.642,40.642,0,0,0-7.665,21.793m83.991-59.26h0a184.373,184.373,0,0,1,23.417-1.484h0a184.244,184.244,0,0,0-23.42,1.485" transform="translate(-35.131 -83.297)"/><path class="g" d="M380.294-127.724a.306.306,0,0,1,.032-.018l-.032.018" transform="translate(-106.239 -135.658)"/><path class="g" d="M380.378-127.773l.031-.017-.031.017" transform="translate(-106.263 -135.645)"/><path class="g" d="M380.459-127.82l.032-.018-.032.018" transform="translate(-106.285 -135.631)"/><path class="g" d="M380.542-127.869l.035-.02-.035.02" transform="translate(-106.308 -135.617)"/><path class="g" d="M380.622-127.916l.036-.021-.036.021" transform="translate(-106.331 -135.604)"/><path class="g" d="M380.7-127.964l.036-.021-.036.021" transform="translate(-106.354 -135.59)"/><path class="g" d="M380.786-128.012l.036-.021-.036.021" transform="translate(-106.376 -135.576)"/><path class="g" d="M380.867-128.059l.039-.023-.039.023" transform="translate(-106.399 -135.563)"/><path class="g" d="M380.944-128.105l.042-.025-.042.025" transform="translate(-106.421 -135.549)"/><path class="g" d="M381.026-128.154l.043-.026c-.014.01-.029.017-.043.026" transform="translate(-106.443 -135.535)"/><path class="g" d="M381.1-128.2l.045-.027-.045.027" transform="translate(-106.465 -135.522)"/><path class="g" d="M381.184-128.248l.047-.028-.047.028" transform="translate(-106.488 -135.509)"/><path class="g" d="M125.724-229.594h0m0-.043v0m0-.046v0m0-.1v0m.009-.651v0m0-.044a.021.021,0,0,1,0,0,.021.021,0,0,0,0,0m0-.092a.063.063,0,0,0,0-.009.063.063,0,0,1,0,.009m0-.045v0m0-.049s0-.009,0-.012,0,.008,0,.012m0-.041c0-.006,0-.011,0-.016s0,.011,0,.016m0-.041c0-.007,0-.012,0-.018s0,.012,0,.018m0-.054c0-.008,0-.016,0-.024,0,.009,0,.015,0,.024m0-.038v0" transform="translate(-35.122 -106.851)"/><path class="h" d="M233.154-130.1c-27.494,0-54.988-6.056-75.965-18.167s-31.465-27.984-31.465-43.857h0c0,15.873,10.488,31.747,31.465,43.857S205.66-130.1,233.154-130.1s54.988-6.056,75.965-18.167l.059-.033-.059.033C288.141-136.16,260.647-130.1,233.154-130.1m76.055-18.219.029-.017-.029.017m.06-.035.028-.017-.028.017m.06-.035.028-.017-.028.017m.062-.036.023-.014-.023.014m.059-.035.024-.014-.024.014m.061-.035.022-.013-.022.013m.059-.035.022-.012-.022.012m.061-.036.016-.009-.016.009m.059-.035.016-.009-.016.009m.06-.036.012-.007-.012.007m.058-.033.013-.008-.013.008m.061-.036,0,0,0,0M144.36-201.014l-.282-.338.282.338h0m-.282-.34c-.009-.011-.017-.02-.025-.031l.025.031m-.033-.039-.015-.018.015.018" transform="translate(-35.122 -115.078)"/><path class="h" d="M125.724-229.12v0" transform="translate(-35.122 -107.324)"/><path class="h" d="M125.724-229.19c0-.012,0-.024,0-.037,0,.012,0,.025,0,.037" transform="translate(-35.122 -107.307)"/><path class="h" d="M125.725-229.615q0-.324.009-.649-.007.324-.009.649" transform="translate(-35.123 -107.018)"/><path class="h" d="M125.738-230.283v0" transform="translate(-35.126 -107)"/><path class="h" d="M125.74-230.365c0-.03,0-.058,0-.087,0,.029,0,.059,0,.087" transform="translate(-35.127 -106.965)"/><path class="h" d="M125.743-230.479v0" transform="translate(-35.128 -106.947)"/><path class="h" d="M125.744-230.542c0-.013,0-.028,0-.041,0,.013,0,.028,0,.041" transform="translate(-35.128 -106.928)"/><path class="h" d="M125.747-230.612c0-.01,0-.019,0-.029,0,.011,0,.018,0,.029" transform="translate(-35.129 -106.912)"/><path class="h" d="M125.749-230.673c0-.008,0-.017,0-.025,0,.008,0,.017,0,.025" transform="translate(-35.129 -106.896)"/><path class="h" d="M125.751-230.737v0" transform="translate(-35.13 -106.875)"/><path class="h" d="M125.753-230.812s0-.01,0-.014,0,.01,0,.014" transform="translate(-35.13 -106.86)"/><path class="h" d="M125.755-230.866s0-.009,0-.013,0,.01,0,.013" transform="translate(-35.131 -106.846)"/><path class="i" d="M233.154-146.784c-27.494,0-54.988-6.056-75.965-18.167s-31.465-27.984-31.465-43.857v-29.24h0v-.052c0-.012,0-.025,0-.037v-.006c0-.03,0-.06,0-.089v0q0-.324.009-.649v-.044a.021.021,0,0,1,0,0c0-.029,0-.059,0-.087a.064.064,0,0,0,0-.009v-.044c0-.013,0-.028,0-.041s0-.009,0-.012,0-.018,0-.029,0-.011,0-.016,0-.017,0-.025,0-.012,0-.018v-.036c0-.009,0-.015,0-.024s0-.01,0-.014v-.025s0-.01,0-.013a40.642,40.642,0,0,1,7.665-21.793c-5.12,7.388-7.681,15.231-7.681,23.074,0,12.346,6.346,24.693,19.038,35.269,2.5,14.892,14.824,33.592,45.6,43.754,12.014,3.966,26.837,5.8,42.252,5.8,28.237,0,58.45-6.164,76.937-16.683l3.953,2.261q-1.764,1.146-3.646,2.254l0,0-.047.028-.013.008-.045.027-.012.007-.043.026-.016.009-.042.025-.016.009-.039.023-.022.012-.037.021-.022.013-.036.021-.024.014-.036.021-.023.014-.035.02-.028.017-.032.018-.028.017-.031.017-.029.017a.3.3,0,0,0-.032.018l-.059.033c-20.977,12.111-48.471,18.167-75.965,18.167m97.3-35.7-2.746-1.571c8.739-8.407,11.52-14.527,12.767-22.027-.614,8.088-3.954,16.12-10.021,23.6" transform="translate(-35.122 -98.396)"/><path class="e" d="M303.933-218.287c-18.735,10.817-43.869,16.775-70.77,16.775s-52.032-5.957-70.769-16.775c-16.94-9.781-26.271-22.161-26.271-34.86s9.329-25.081,26.271-34.862c18.735-10.817,43.869-16.775,70.769-16.775s52.036,5.958,70.77,16.775c16.943,9.78,26.271,22.162,26.271,34.862s-9.331,25.079-26.271,34.86m5.194-78.719c-41.954-24.222-109.974-24.222-151.929,0s-41.954,63.495,0,87.716,109.976,24.222,151.93,0,41.953-63.493,0-87.716" transform="translate(-35.125 -83.297)"/><path class="j" d="M233.165-191.123c-27.494,0-54.988-6.055-75.966-18.167a88.434,88.434,0,0,1-12.428-8.588c-12.692-10.576-19.038-22.923-19.038-35.269,0-15.874,10.488-31.747,31.466-43.859,12.333-7.12,26.918-12.147,42.431-15.081l3.7,2.142a4.061,4.061,0,0,0,2.037.54,3.993,3.993,0,0,0,3.892-2.9l.479-1.382a184.293,184.293,0,0,1,23.424-1.484c27.494,0,54.987,6.056,75.964,18.167s31.465,27.985,31.465,43.859S330.105-221.4,309.129-209.29s-48.47,18.167-75.964,18.167m-70.817-27.191.046.027c18.737,10.817,43.871,16.775,70.769,16.775s52.036-5.957,70.77-16.775l.048-.028.006,0,.041-.024.01-.006.041-.024,0,0,.245-.142h0l.147-.086h0l.046-.027.006,0,.143-.084.008,0,.035-.021.019-.011.028-.016.017-.011.026-.015.021-.012.02-.012.051-.03.013-.008.035-.02.007,0,.036-.021,0,0c11.241-6.688,18.986-14.546,22.7-22.863a27.64,27.64,0,0,0,2.522-11.379h0c0-12.7-9.33-25.08-26.284-34.866-18.721-10.806-43.865-16.77-70.773-16.77-26.561,0-51.419,5.82-70.066,16.378h0l-.162.092-.013.008-.074.042-.02.011-.06.035-.018.011-.071.04-.022.012-.061.036-.013.008-.073.042-.02.012-.075.043c-16.955,9.786-26.285,22.171-26.285,34.866h0a28.993,28.993,0,0,0,4.177,14.628h0l.008-.012c4.232,7.281,11.6,14.124,21.721,20.031l.009,0,.032.018.015.01.028.016.019.011.037.022.029.016.022.013a.2.2,0,0,1,.024.014l.021.012.026.015.019.011.031.018.014.008" transform="translate(-35.125 -83.297)"/><path class="e" d="M334.236-249.123a28.812,28.812,0,0,1-4.2,14.628c-4.259-7.376-11.76-14.3-22.087-20.238-18.721-10.826-43.865-16.789-70.773-16.789-26.887,0-52.03,5.963-70.752,16.789C156.1-248.791,148.6-241.872,144.318-234.5a28.993,28.993,0,0,1-4.177-14.628c0-12.7,9.33-25.08,26.285-34.866,18.722-10.806,43.865-16.77,70.752-16.77,26.909,0,52.052,5.964,70.773,16.77,16.954,9.786,26.284,22.171,26.284,34.866" transform="translate(-39.15 -87.324)"/><path class="f" d="M330.039-234.5a.039.039,0,0,0,0-.007,31.568,31.568,0,0,0,3.33-8c-2.65-10.329-11.427-20.171-25.407-28.241-18.735-10.817-43.869-16.775-70.771-16.775-24.718,0-47.944,5.03-66.085,14.239,9.137-12.419,31.414-24.327,48.378-26.552l.013-.032c-19.786,1.993-37.948,7.309-52.382,15.481,18.647-10.558,43.505-16.378,70.066-16.378,26.909,0,52.052,5.964,70.773,16.77,16.954,9.786,26.284,22.171,26.284,34.866a27.64,27.64,0,0,1-2.522,11.379,34.142,34.142,0,0,1-1.675,3.249m-185.721,0h0l.014-.026h0l-.014.025m-4.177-14.628h0c0-12.7,9.33-25.08,26.285-34.866l.075-.043-.075.043c-16.955,9.786-26.285,22.171-26.285,34.866m26.38-34.921.073-.042-.073.042m.086-.05.062-.036-.062.036m.084-.048.071-.04-.071.04m.089-.051.06-.035-.06.035m.08-.045.074-.042-.074.042m.087-.05.162-.092-.162.092" transform="translate(-39.15 -87.324)"/><path class="g" d="M144.318-228.146a28.993,28.993,0,0,1-4.177-14.628h0a28.993,28.993,0,0,0,4.177,14.628h0M166.5-277.684l.02-.012-.02.012m.093-.054.013-.008-.013.008m.075-.043.022-.012-.022.012m.093-.053.018-.011-.018.011m.078-.045.02-.011-.02.011m.094-.053.013-.008-.013.008m.176-.1h0" transform="translate(-39.15 -93.673)"/><path class="i" d="M144.318-234.148a28.993,28.993,0,0,1-4.177-14.628c0-12.7,9.33-25.08,26.285-34.866l.075-.043.02-.012.073-.042.013-.008.061-.036.022-.013.071-.04.018-.011.06-.035.02-.011.074-.042.013-.008.162-.092h0c14.434-8.172,32.6-13.488,52.382-15.481l-.013.032c-16.964,2.225-39.241,14.133-48.378,26.552q-2.4,1.219-4.683,2.536c-13.979,8.07-22.758,17.912-25.406,28.241a31.53,31.53,0,0,0,3.319,7.981l-.014.026" transform="translate(-39.15 -87.672)"/><path class="k" d="M238.81-186.152c-26.9,0-52.03-5.958-70.766-16.775l-.046-.027-.014-.008-.031-.018-.019-.011-.026-.015-.021-.012-.024-.014-.022-.013-.029-.016-.037-.022-.019-.011-.028-.016-.015-.01-.032-.018-.009,0c-10.129-5.911-17.488-12.758-21.714-20.043,3.806-6.546,10.148-12.731,18.751-18.193q1.619-1.028,3.343-2.021h0l.052-.03.027-.015.023-.013a106.155,106.155,0,0,1,13.468-6.482c-.208.081-.439.168-.689.258,16.7-6.826,36.749-10.507,57.871-10.507,26.909,0,52.052,5.963,70.773,16.789,10.323,5.941,17.823,12.858,22.083,20.232a44.76,44.76,0,0,1-7.507,9.449,73.234,73.234,0,0,1-14.576,10.792c-18.737,10.816-43.87,16.775-70.767,16.775" transform="translate(-40.775 -98.658)"/><path class="l" d="M274.808-168.138h0c26.9,0,52.03-5.958,70.767-16.775A73.236,73.236,0,0,0,360.147-195.7a71.9,71.9,0,0,1-13.512,10.173l0,0-.036.021-.007,0-.035.02-.012.008c-.017.011-.033.02-.051.03l-.02.012-.021.012-.026.015-.017.011-.028.016-.019.011-.035.021-.008,0-.143.084-.006,0-.046.027h0l-.147.086h0l-.245.142,0,0-.041.024-.01.006-.041.024-.006,0-.048.028c-18.735,10.817-43.869,16.775-70.77,16.775" transform="translate(-76.77 -116.672)"/><path class="m" d="M247.23-164.195c-26.9,0-52.032-5.957-70.769-16.775l-.046-.027.046.027c18.737,10.817,43.871,16.775,70.769,16.775s52.036-5.957,70.77-16.775l.048-.028-.048.028c-18.735,10.817-43.869,16.775-70.77,16.775M318.055-181l.041-.024-.041.024M176.4-181l-.031-.018.031.018m141.7-.026.041-.024-.041.024m-141.754,0-.026-.015.026.015m141.8-.024.245-.142-.245.142m-141.847,0a.2.2,0,0,0-.024-.014l.024.014m-.046-.028-.029-.016.029.016m-.066-.038-.019-.011.019.011m-.047-.027-.015-.01.015.01m-.047-.028-.009,0,.009,0m142.3-.018.147-.086-.147.086m.147-.086.046-.027-.046.027m.052-.031.143-.084-.143.084m.151-.088.035-.021-.035.021m.054-.032.028-.016-.028.016m.045-.027.026-.015-.026.015m.047-.028.02-.012-.02.012m.071-.042.012-.008-.012.008m.047-.028.007,0-.007,0m.042-.025,0,0,0,0" transform="translate(-49.192 -120.615)"/><path class="j" d="M331.66-229.369c-4.26-7.374-11.76-14.291-22.083-20.232-18.721-10.826-43.865-16.789-70.773-16.789-21.122,0-41.17,3.681-57.871,10.507a24.959,24.959,0,0,1-7.743,1.689c-3.546,0-6.148-1.767-3.648-8.3a24.335,24.335,0,0,1,3.186-5.652c18.141-9.209,41.367-14.239,66.085-14.239,26.9,0,52.036,5.957,70.77,16.775,13.979,8.07,22.757,17.912,25.407,28.241a31.57,31.57,0,0,1-3.33,8m-185.7-.018h0c3.806-6.545,10.148-12.73,18.751-18.192-8.6,5.461-14.945,11.646-18.751,18.193M168.051-249.6l.052-.03-.052.03m.079-.045.023-.013-.023.013" transform="translate(-40.775 -92.457)"/><path class="n" d="M176.688-239.457l.027-.015-.027.015m.05-.029a105.553,105.553,0,0,1,12.779-6.223c.25-.09.48-.178.689-.258a106.155,106.155,0,0,0-13.468,6.482" transform="translate(-49.359 -102.631)"/><path class="o" d="M144.67-223.868a31.53,31.53,0,0,1-3.319-7.981c2.648-10.329,11.426-20.171,25.406-28.241q2.279-1.316,4.683-2.536a24.335,24.335,0,0,0-3.186,5.652c-2.5,6.534.1,8.3,3.648,8.3a24.959,24.959,0,0,0,7.743-1.689,105.558,105.558,0,0,0-12.779,6.223l-.023.013-.027.015-.052.03h0q-1.724.992-3.343,2.021c-8.6,5.461-14.945,11.646-18.751,18.192" transform="translate(-39.488 -97.977)"/><path class="a" d="M166.64-215.044c6,4.706,12.817,7.668,19.765,10.05a141.327,141.327,0,0,0,21.339,5.265,210.917,210.917,0,0,0,43.779,2.5c7.312-.318,14.636-1,21.909-1.989a179.244,179.244,0,0,0,21.51-4.234,92.977,92.977,0,0,0,20.3-7.71,47.434,47.434,0,0,0,4.61-2.819,35.572,35.572,0,0,0,4.22-3.366,23.806,23.806,0,0,0,3.547-4.1,17.339,17.339,0,0,0,2.392-5.019,16.159,16.159,0,0,1-.982,5.724,24.924,24.924,0,0,1-2.74,5.263,31.15,31.15,0,0,1-3.772,4.614,44.489,44.489,0,0,1-4.413,3.985,78.683,78.683,0,0,1-20.591,11.306,131.931,131.931,0,0,1-22.45,6.256,168.7,168.7,0,0,1-23.056,2.732,147.138,147.138,0,0,1-46.125-4.908,103.006,103.006,0,0,1-21.627-8.661,65.938,65.938,0,0,1-9.7-6.471c-.761-.6-1.476-1.27-2.209-1.9-.7-.676-1.421-1.316-2.084-2.024a35.136,35.136,0,0,1-3.619-4.485" transform="translate(-46.552 -108.076)"/><path class="p" d="M375.782-147.883a16.64,16.64,0,0,1,7.474-13.068c2.064-1.2,3.935-1.326,5.3-.557l0,0,.018.011,0,0,23.937,13.689.026.014.007,0h0c1.354.786,2.2,2.461,2.206,4.849a16.631,16.631,0,0,1-7.474,13.067c-2.073,1.21-3.955,1.331-5.321.549l-23.932-13.684,0,0c-1.378-.776-2.236-2.46-2.246-4.872" transform="translate(-104.979 -126.09)"/><path class="q" d="M378.028-139.727c-1.378-.776-2.236-2.46-2.246-4.872a14.3,14.3,0,0,1,1.277-5.634l34.408,19.72a14.293,14.293,0,0,1-4.188,3.924c-2.074,1.21-3.955,1.331-5.321.549l-23.932-13.684,0,0" transform="translate(-104.979 -129.375)"/><path class="r" d="M503.871-103.575h0l-.007,0-.032-.015-76.157-38.8-.007,0-.1-.054-.008.013c-1.767-.952-4.164-.788-6.81.755-5.4,3.146-9.753,10.76-9.727,17.007.013,3.132,1.124,5.324,2.909,6.338l71.614,46.1a18.064,18.064,0,0,0,9.653,2.776A18.156,18.156,0,0,0,513.355-87.62a18.153,18.153,0,0,0-9.485-15.955" transform="translate(-114.823 -131.386)"/><path class="p" d="M413.931-113.11l71.614,46.1A18.064,18.064,0,0,0,495.2-64.23a18.142,18.142,0,0,0,18.1-16.988c-1.372,5.962-11.23,11.035-23.456,4.2-12.294-6.87-57.491-35.434-78.068-47.283a16.888,16.888,0,0,0-.749,4.85c.013,3.132,1.124,5.324,2.909,6.338" transform="translate(-114.823 -136.62)"/><path class="i" d="M413.931-118.344c-1.785-1.014-2.9-3.206-2.909-6.338-.026-6.247,4.329-13.861,9.727-17.007,2.646-1.543,5.044-1.707,6.811-.755l6.748,3.422c-1.813-.976-4.271-.808-6.985.774-5.535,3.226-10,11.035-9.975,17.442.013,3.211,1.1,5.511,2.934,6.55l-6.349-4.089" transform="translate(-114.823 -131.386)"/><path class="s" d="M423.7-103.209h0l-.413-.266h0l.415.267" transform="translate(-118.25 -142.438)"/><path class="t" d="M423.7-103.207l0,0-.415-.267,0,0,.422.272" transform="translate(-118.248 -142.436)"/><path class="u" d="M423.7-103.208a4.839,4.839,0,0,1-.413-.266l.413.266" transform="translate(-118.25 -142.438)"/><path class="t" d="M422.31-105.912l-.007,0c-1.57-1.141-2.492-3.321-2.5-6.273.012,2.956.937,5.138,2.511,6.277" transform="translate(-117.275 -140.003)"/><path class="v" d="M411.023-117.542h0c0-.069,0-.138,0-.209q0-.235.006-.473-.007.238-.006.473h0c0,.07,0,.14,0,.209" transform="translate(-114.823 -138.316)"/><path class="t" d="M417.51-116.389a.009.009,0,0,0,0,0,.009.009,0,0,1,0,0m0-.03a.235.235,0,0,1,0-.024.193.193,0,0,0,0,.024m0-.028a19.244,19.244,0,0,1,.605-2.689h0a19.214,19.214,0,0,0-.606,2.689m-6.5-1.56q0-.235.006-.473c0-.067,0-.135.008-.2-.01.227-.014.453-.013.675" transform="translate(-114.823 -138.063)"/><path class="v" d="M411.119-120.918q.046-.46.118-.925.076-.492.184-.987a17.338,17.338,0,0,0-.3,1.912m.679-3.38h0" transform="translate(-114.85 -136.62)"/><path class="t" d="M411.1-120.749c0-.056.011-.112.015-.169a17.338,17.338,0,0,1,.3-1.912q.159-.732.378-1.468h0a18.04,18.04,0,0,0-.695,3.549" transform="translate(-114.844 -136.62)"/><path class="i" d="M419.851-109.3l-5.92-3.811c-1.745-.992-2.847-3.108-2.908-6.129,0-.069,0-.138,0-.209h0c0-.223,0-.449.013-.675q.012-.254.032-.51c0-.038.007-.076.01-.115a18.04,18.04,0,0,1,.695-3.549h0c1.92,1.1,4.053,2.356,6.353,3.72a19.249,19.249,0,0,0-.605,2.689v0a.234.234,0,0,0,0,.024c0,.009,0,.017,0,.025a.009.009,0,0,1,0,0,15.273,15.273,0,0,0-.163,2.259h0c.012,2.952.934,5.132,2.5,6.273" transform="translate(-114.823 -136.62)"/><path class="e" d="M130.972-58.19,73.328-87.021,50.363-76.863,130.972-58.19" transform="translate(-14.069 -147.033)"/><path class="w" d="M130.972-58.19h0m0,0L50.363-76.863,73.328-87.021l7.822,3.912h0L130.972-58.19" transform="translate(-14.069 -147.033)"/><path class="e" d="M142.535-65.24,91.753-99.187l9.1-13.072L142.535-65.24" transform="translate(-25.632 -139.983)"/><path class="w" d="M142.535-65.24,91.753-99.187l9.1-13.072L142.535-65.24" transform="translate(-25.632 -139.983)"/><path class="e" d="M91.753-94.12l.96,9.028,49.822,24.919L91.753-94.12" transform="translate(-25.632 -145.051)"/><path class="x" d="M142.535-60.173,92.713-85.092l-.96-9.028,50.782,33.946" transform="translate(-25.632 -145.051)"/><path class="r" d="M79.7-97.575a.541.541,0,0,0,.375-.155.684.684,0,0,0,.057-.894q-.562-.716-1.111-1.438a.531.531,0,0,0-.8-.075.68.68,0,0,0-.068.892q.554.728,1.119,1.452a.546.546,0,0,0,.431.217" transform="translate(-21.794 -143.328)"/><path class="r" d="M78.213-252.448a.674.674,0,0,1,.173-.874c.969-.688,1.954-1.336,2.924-1.925a.549.549,0,0,1,.776.253.671.671,0,0,1-.228.86c-.947.575-1.909,1.207-2.856,1.878a.53.53,0,0,1-.308.1A.559.559,0,0,1,78.213-252.448Zm-7.079,6.08a.682.682,0,0,1,.048-.894c.846-.832,1.72-1.646,2.6-2.417a.533.533,0,0,1,.8.1.682.682,0,0,1-.093.89c-.863.757-1.721,1.555-2.55,2.371a.539.539,0,0,1-.379.16A.545.545,0,0,1,71.134-246.368Zm-6.172,7.195a.683.683,0,0,1-.073-.893c.725-.966,1.481-1.915,2.245-2.821a.531.531,0,0,1,.807-.03.682.682,0,0,1,.028.895c-.75.89-1.49,1.82-2.2,2.767a.551.551,0,0,1-.439.228A.541.541,0,0,1,64.962-239.173Zm-5.109,8.15a.673.673,0,0,1-.2-.869c.579-1.073,1.2-2.139,1.828-3.169a.539.539,0,0,1,.794-.166.679.679,0,0,1,.15.881c-.621,1.009-1.224,2.053-1.793,3.105a.56.56,0,0,1-.49.307.516.516,0,0,1-.293-.09Zm-3.9,8.934a.658.658,0,0,1-.317-.823c.418-1.155.875-2.315,1.356-3.447a.553.553,0,0,1,.76-.3.667.667,0,0,1,.274.844c-.472,1.11-.92,2.247-1.329,3.379a.575.575,0,0,1-.53.4Zm-2.591,9.5a.637.637,0,0,1-.429-.759c.252-1.216.54-2.441.856-3.64a.566.566,0,0,1,.708-.431.648.648,0,0,1,.388.786c-.31,1.176-.592,2.377-.84,3.569a.587.587,0,0,1-.557.492Zm-1.345,9.816a.62.62,0,0,1-.515-.691c.106-1.238.241-2.492.4-3.73a.583.583,0,0,1,.646-.537.626.626,0,0,1,.484.717c-.158,1.218-.291,2.454-.395,3.669a.6.6,0,0,1-.568.574Zm-.765,9.318q-.052-1.469-.054-2.95l0-.808a.6.6,0,0,1,.57-.625h.008a.606.606,0,0,1,.563.641l0,.792q0,1.454.054,2.9a.61.61,0,0,1-.548.658h-.022a.6.6,0,0,1-.571-.607Zm.988,9.952c-.2-1.223-.375-2.472-.517-3.713a.622.622,0,0,1,.494-.708.592.592,0,0,1,.638.548c.14,1.218.311,2.446.508,3.647a.632.632,0,0,1-.46.736l-.1.012A.591.591,0,0,1,52.243-183.5Zm2.208,9.708c-.352-1.2-.677-2.413-.965-3.6a.642.642,0,0,1,.4-.775.563.563,0,0,1,.7.445c.285,1.169.6,2.361.95,3.542a.649.649,0,0,1-.367.8l-.176.032A.581.581,0,0,1,54.451-173.8Zm3.322,9.3c-.481-1.138-.941-2.294-1.368-3.435a.662.662,0,0,1,.309-.828.553.553,0,0,1,.746.342c.419,1.125.873,2.264,1.346,3.384a.663.663,0,0,1-.275.842l-.243.062A.569.569,0,0,1,57.773-164.492Zm4.286,8.8q-.887-1.607-1.709-3.238a.669.669,0,0,1,.22-.861.539.539,0,0,1,.776.244q.81,1.608,1.687,3.194a.676.676,0,0,1-.188.872.53.53,0,0,1-.3.092A.559.559,0,0,1,62.059-155.69Zm5.085,8.254q-1.024-1.5-1.99-3.029a.68.68,0,0,1,.139-.882.539.539,0,0,1,.8.154q.954,1.509,1.966,3a.68.68,0,0,1-.112.887.532.532,0,0,1-.344.128.55.55,0,0,1-.456-.252" transform="translate(-14.304 -100.018)"/><path class="r" d="M100.257-257.762l.174-.032a9.3,9.3,0,0,1,1.566-.43.626.626,0,0,0,.484-.717.583.583,0,0,0-.646-.537,10.122,10.122,0,0,0-1.752.478.649.649,0,0,0-.369.8.579.579,0,0,0,.543.441" transform="translate(-27.848 -98.854)"/><path class="e" d="M451.967-570.847l-59.092-18.112L438.4-557.686l13.567-13.161" transform="translate(-109.754 -6.813)"/><path class="y" d="M438.4-557.686l-45.525-31.273,59.092,18.112L438.4-557.686m-45.525-31.273h0" transform="translate(-109.754 -6.813)"/><path class="e" d="M392.875-590.094l63.6,10.23,13.567-13.16-77.169,2.93" transform="translate(-109.754 -5.677)"/><path class="y" d="M456.477-579.864l-63.6-10.23,77.169-2.93-13.567,13.16" transform="translate(-109.754 -5.677)"/><path class="e" d="M456.477-578.728,456.539-563l-4.572-7.845-59.092-18.112,63.6,10.23" transform="translate(-109.754 -6.813)"/><path class="z" d="M456.539-563l-4.572-7.845-59.092-18.112,63.6,10.23L456.539-563" transform="translate(-109.754 -6.813)"/><path class="z" d="M477.694-555.98l-9.094-3.459,4.522-4.386,4.572,7.845" transform="translate(-130.908 -13.834)"/><path class="u" d="M470.051-558.887l-1.451-.552,4.522-4.386-3.071,4.938" transform="translate(-130.908 -13.834)"/><path class="r" d="M497.678-567.707a.546.546,0,0,0-.2.35.683.683,0,0,0,.5.746q.879.229,1.754.47a.53.53,0,0,0,.685-.427.68.68,0,0,0-.486-.75c-.588-.163-1.177-.321-1.77-.477a.546.546,0,0,0-.476.088" transform="translate(-138.973 -12.719)"/><path class="r" d="M565.026-502.629a.673.673,0,0,1,.682.572c.189,1.2.346,2.425.466,3.628a.539.539,0,0,1-.531.614.679.679,0,0,1-.652-.61c-.118-1.179-.271-2.375-.455-3.556a.56.56,0,0,1,.2-.541A.518.518,0,0,1,565.026-502.629Zm-2.313-9.47a.659.659,0,0,1,.752.463c.367,1.172.706,2.372,1.01,3.564a.553.553,0,0,1-.42.7.667.667,0,0,1-.729-.505c-.3-1.168-.629-2.344-.99-3.494a.576.576,0,0,1,.18-.638Zm-3.693-9.125a.637.637,0,0,1,.8.345c.536,1.119,1.048,2.269,1.524,3.413a.566.566,0,0,1-.3.773.647.647,0,0,1-.785-.39c-.467-1.123-.969-2.249-1.5-3.348a.588.588,0,0,1,.144-.728Zm-4.879-8.624a.621.621,0,0,1,.828.237c.665,1.049,1.318,2.129,1.94,3.211a.581.581,0,0,1-.188.819.626.626,0,0,1-.82-.277c-.612-1.065-1.255-2.128-1.909-3.159a.6.6,0,0,1,.1-.8Zm-5.039-7.876q.933,1.136,1.83,2.314l.486.646a.6.6,0,0,1-.076.844l-.006,0a.6.6,0,0,1-.836-.169l-.476-.631q-.883-1.157-1.8-2.274a.61.61,0,0,1,.036-.855l.018-.014a.6.6,0,0,1,.822.137Zm-6.816-7.319c.9.851,1.8,1.74,2.662,2.64a.623.623,0,0,1,.036.863.592.592,0,0,1-.84-.049c-.849-.884-1.729-1.757-2.615-2.593a.635.635,0,0,1-.081-.865l.077-.071A.591.591,0,0,1,542.287-545.043Zm-7.639-6.385c1.008.743,2,1.509,2.951,2.281a.643.643,0,0,1,.15.861.565.565,0,0,1-.826.069c-.935-.757-1.911-1.512-2.9-2.242a.65.65,0,0,1-.191-.857l.121-.132A.582.582,0,0,1,534.648-551.428Zm-8.282-5.388c1.072.614,2.139,1.255,3.17,1.9a.66.66,0,0,1,.257.846.553.553,0,0,1-.8.18c-1.016-.64-2.066-1.27-3.121-1.876a.663.663,0,0,1-.292-.836l.156-.2A.57.57,0,0,1,526.367-556.817Zm-8.742-4.405q1.679.741,3.321,1.541a.668.668,0,0,1,.347.818.54.54,0,0,1-.766.277q-1.618-.788-3.276-1.518a.677.677,0,0,1-.379-.808.53.53,0,0,1,.182-.255A.561.561,0,0,1,517.625-561.222Zm-9.046-3.485q1.725.577,3.418,1.2a.683.683,0,0,1,.426.787.54.54,0,0,1-.727.36q-1.673-.623-3.379-1.193a.679.679,0,0,1-.449-.772.539.539,0,0,1,.2-.31.554.554,0,0,1,.516-.076" transform="translate(-141.874 -13.578)"/><path class="aa" d="M563.962-265.968c-2.573-1.537-6.205-1.326-10.239,1l-73.186,42.253c-7.813,4.51-14.147,15.229-14.147,23.941,0,4.257,1.511,7.243,3.969,8.661,1.336.77,6.512,3.757,7.856,4.525,2.565,1.465,6.151,1.227,10.126-1.068l73.187-42.254c7.812-4.51,14.146-15.229,14.146-23.941,0-4.236-1.5-7.216-3.936-8.641-1.343-.785-6.487-3.708-7.777-4.479" transform="translate(-130.291 -96.768)"/><path class="ab" d="M485.059-183.207c-4.423,0-7.17-3.495-7.17-9.119,0-8.544,6.238-19.1,13.906-23.525l73.186-42.253a12.853,12.853,0,0,1,6.254-1.928c4.424,0,7.171,3.495,7.171,9.119,0,8.545-6.238,19.1-13.906,23.525l-73.187,42.254a12.854,12.854,0,0,1-6.255,1.928" transform="translate(-133.503 -98.701)"/><path class="ac" d="M571.05-260.7a13.205,13.205,0,0,0-6.494,1.993L491.37-216.454c-7.813,4.511-14.147,15.229-14.147,23.942,0,6.1,3.1,9.6,7.65,9.6a13.211,13.211,0,0,0,6.5-1.993l73.187-42.254c7.812-4.51,14.145-15.229,14.145-23.941,0-6.1-3.1-9.6-7.65-9.6m0,.961c4.127,0,6.689,3.31,6.689,8.639,0,8.391-6.13,18.759-13.664,23.108l-73.187,42.254a12.387,12.387,0,0,1-6.015,1.864,5.969,5.969,0,0,1-4.787-2.161,10.118,10.118,0,0,1-1.9-6.478c0-8.392,6.131-18.759,13.666-23.109l73.186-42.253a12.38,12.38,0,0,1,6.014-1.864" transform="translate(-133.317 -98.515)"/><path class="e" d="M506.781-188.184c.3-.556.246-1.129-.031-1.286-.089-.05-2.174-1.252-2.446-1.413a.38.38,0,0,0-.341-.011l-2.246.862-.742-1.574a.4.4,0,0,0-.166-.189c-.309-.171-2.384-1.379-2.449-1.415-.308-.176-.823.215-1.022.872l-1.528,5.008a1.574,1.574,0,0,1-.5.77l-3.415,2.633c-.543.419-.759,1.433-.367,1.716L494-180.426a.713.713,0,0,1,.191.671l-.584,4.872c-.043.356.054.595.218.689l2.452,1.418c.194.111.478.021.742-.313l3.055-3.9a.748.748,0,0,1,.615-.356l3.055.378c.485.06,1.053-.817.96-1.484l-.583-4.2a1.541,1.541,0,0,1,.19-.891l2.47-4.639" transform="translate(-137.258 -117.357)"/><path class="ad" d="M510.78-188.571a.242.242,0,0,0-.036-.016l-1.694-.977c.708.409,1.669.961,1.73.994m-5.036-.56v0l.786-.3-.786.3m2.663-.807-.076-.044a.32.32,0,0,0-.169-.045h-.024l.028,0a.309.309,0,0,1,.162.044l.079.046" transform="translate(-141.285 -118.258)"/><path class="z" d="M506.857-187.232a.285.285,0,0,1-.058,0h0a.309.309,0,0,1-.088-.029h0a.392.392,0,0,1-.174-.191l-.785-1.671.786-.3,1.46-.557a.483.483,0,0,1,.148-.037h.024a.32.32,0,0,1,.169.045l.076.044.644.374,1.694.977a.349.349,0,0,0-.129-.023.5.5,0,0,0-.174.034l-3.418,1.31a.456.456,0,0,1-.167.035" transform="translate(-141.285 -118.258)"/><path class="ad" d="M492.205-181.424l3.35-2.585a1.122,1.122,0,0,0,.12-.107,1.113,1.113,0,0,1-.119.108l-3.35,2.584" transform="translate(-137.503 -119.909)"/><path class="z" d="M494.055-179.758l-2.448-1.418a1.444,1.444,0,0,1,.369-.458l.062-.048,3.35-2.584a1.113,1.113,0,0,0,.119-.108,1.655,1.655,0,0,0,.38-.66v-.007l2.451,1.419v0a1.745,1.745,0,0,1-.262.525,1.291,1.291,0,0,1-.237.246l-1.376,1.062-2.037,1.571a1.4,1.4,0,0,0-.371.457" transform="translate(-137.336 -119.65)"/><path class="ae" d="M503.919-191.557a.3.3,0,0,0-.049-.026c-.213-.119-.895-.514-1.481-.854.616.356,1.337.773,1.511.868l.018.012" transform="translate(-140.348 -117.585)"/><path class="x" d="M500-185.915l-2.451-1.419,1.528-5.006c.167-.547.555-.911.858-.911a.318.318,0,0,1,.162.042c.03.015.452.261.941.545.586.34,1.267.735,1.481.854a.322.322,0,0,0-.132-.026.662.662,0,0,0-.421.194,1.6,1.6,0,0,0-.439.722L500-185.915" transform="translate(-138.995 -117.357)"/><path class="af" d="M494.885-175.558l-.019-.012-.024-.024-.5-.36.5.36a.359.359,0,0,1,.042.036" transform="translate(-138.1 -122.189)"/><path class="x" d="M496.451-175.215l-2.408-1.384a.357.357,0,0,0-.042-.036l-.5-.36-1.973-1.427c-.283-.206-.247-.785,0-1.257l2.448,1.418a1.679,1.679,0,0,0-.2.746.611.611,0,0,0,.2.513l.555.4,1.914,1.386" transform="translate(-137.258 -121.148)"/><path class="ag" d="M497.167-167.79l-.012,0c-.082-.049-.654-.381-1.227-.713l1.227.71.012.007m-2.119-1.225-.345-.2c-.163-.1-.26-.332-.218-.689l.183-1.52-.183,1.519c-.043.356.054.595.218.689l.344.2m.031-5.9a.659.659,0,0,0-.177-.5l.019.012a.673.673,0,0,1,.158.49" transform="translate(-138.137 -122.338)"/><path class="z" d="M497.155-167.792l-1.227-.71-.879-.508-.344-.2c-.164-.094-.261-.332-.218-.689l.183-1.519.4-3.352c0-.05.007-.1.007-.145a.674.674,0,0,0-.158-.49l2.408,1.384.019.012.006.006V-174a.565.565,0,0,1,.167.349.978.978,0,0,1,.01.143,1.21,1.21,0,0,1-.01.153l-.366,3.059-.218,1.815a1.176,1.176,0,0,0,0,.314.5.5,0,0,0,.215.372" transform="translate(-138.137 -122.343)"/><path class="e" d="M501.925-191.057l1.528,3.245a.365.365,0,0,0,.5.2l3.415-1.311c.543-.208.759.556.366,1.292L505.261-183a1.541,1.541,0,0,0-.19.891l.583,4.2c.093.667-.475,1.543-.96,1.484l-3.055-.378a.748.748,0,0,0-.615.356l-3.055,3.9c-.485.62-1.053.4-.96-.376l.583-4.872a.712.712,0,0,0-.19-.671l-2.471-1.784c-.392-.284-.176-1.3.367-1.716l3.415-2.634a1.574,1.574,0,0,0,.5-.77l1.528-5.008c.243-.8.943-1.2,1.186-.685" transform="translate(-138.208 -117.906)"/><path class="w" d="M497.4-172.183c-.23,0-.4-.2-.4-.569a1.443,1.443,0,0,1,.011-.165l.583-4.872a1.21,1.21,0,0,0,.01-.153.623.623,0,0,0-.2-.518l-1.916-1.384-.555-.4a.611.611,0,0,1-.2-.513,1.637,1.637,0,0,1,.568-1.2l3.415-2.634a1.574,1.574,0,0,0,.5-.77l1.528-5.008c.168-.551.556-.915.859-.915a.355.355,0,0,1,.327.23l1.528,3.245a.357.357,0,0,0,.33.228.478.478,0,0,0,.168-.033l3.415-1.311a.493.493,0,0,1,.172-.035c.25,0,.4.247.395.587a1.6,1.6,0,0,1-.2.74L505.261-183a1.648,1.648,0,0,0-.2.749.975.975,0,0,0,.01.142l.583,4.2a1.047,1.047,0,0,1,.01.146c0,.619-.483,1.34-.921,1.34h0l-.047,0-3.055-.378-.043,0h0a.8.8,0,0,0-.571.358l-3.055,3.9a.782.782,0,0,1-.568.358" transform="translate(-138.208 -117.906)"/><path class="e" d="M530.579-201.9c.3-.557.245-1.129-.032-1.286-.089-.051-2.174-1.252-2.445-1.414a.382.382,0,0,0-.342-.011l-2.247.862-.741-1.573a.4.4,0,0,0-.165-.19c-.309-.171-2.385-1.379-2.45-1.415-.308-.175-.822.215-1.022.872l-1.528,5.008a1.573,1.573,0,0,1-.5.77l-3.416,2.634c-.542.418-.758,1.432-.366,1.715l2.471,1.785a.713.713,0,0,1,.19.671L517.4-188.6c-.042.356.054.595.218.689.193.111,2.288,1.323,2.452,1.417.193.11.479.021.742-.313l3.054-3.9a.753.753,0,0,1,.616-.356l3.055.378c.485.061,1.052-.817.96-1.484l-.584-4.2a1.549,1.549,0,0,1,.19-.891l2.472-4.638" transform="translate(-143.906 -113.523)"/><path class="ad" d="M534.576-202.292a.225.225,0,0,0-.037-.017l-1.757-1.014c.712.411,1.733,1,1.795,1.031m-5.035-.56v0l.882-.336-.881.338m2.661-.807-.074-.044a.335.335,0,0,0-.17-.045l-.043,0,.047,0a.313.313,0,0,1,.163.043l.077.046" transform="translate(-147.932 -114.425)"/><path class="z" d="M530.656-200.953a.358.358,0,0,1-.33-.229h0l-.785-1.671.881-.338,1.364-.521a.505.505,0,0,1,.129-.035l.043,0a.335.335,0,0,1,.17.045l.074.044.578.336,1.757,1.014a.349.349,0,0,0-.126-.022.5.5,0,0,0-.174.034l-3.418,1.31a.445.445,0,0,1-.158.035h-.008" transform="translate(-147.933 -114.425)"/><path class="ad" d="M515.9-195.1l.01-.008,3.412-2.633a1.134,1.134,0,0,0,.14-.126,1.132,1.132,0,0,1-.138.127l-3.416,2.634-.008.006" transform="translate(-144.122 -116.068)"/><path class="z" d="M517.853-193.48l-2.447-1.416a1.429,1.429,0,0,1,.357-.452l.008-.006,3.416-2.634a1.134,1.134,0,0,0,.138-.127,1.69,1.69,0,0,0,.362-.641v-.006l2.45,1.419v0a1.77,1.77,0,0,1-.213.455,1.339,1.339,0,0,1-.286.315l-1.376,1.062-2.038,1.571a1.421,1.421,0,0,0-.37.456" transform="translate(-143.984 -115.818)"/><path class="ae" d="M527.962-205.135a.36.36,0,0,0-.042-.023c-.135-.075-.47-.269-.85-.489.4.234.759.437.875.5l.017.012" transform="translate(-147.242 -113.895)"/><path class="x" d="M523.8-199.636l-2.45-1.419,1.528-5.006c.166-.548.554-.912.857-.912a.32.32,0,0,1,.162.042c.042.022.883.512,1.577.913.381.22.716.414.85.489a.336.336,0,0,0-.138-.029.681.681,0,0,0-.442.214,1.619,1.619,0,0,0-.418.7l-1.526,5.006" transform="translate(-145.644 -113.523)"/><path class="af" d="M518.691-189.273l-.016-.01-.024-.024-.467-.337.468.337a.427.427,0,0,1,.039.034" transform="translate(-144.76 -118.365)"/><path class="x" d="M520.249-188.936l-2.412-1.386a.426.426,0,0,0-.039-.034l-.468-.337-2-1.45c-.284-.206-.248-.785,0-1.256l2.447,1.416a1.687,1.687,0,0,0-.2.748.613.613,0,0,0,.2.512l.727.525,1.743,1.262" transform="translate(-143.906 -117.316)"/><path class="ag" d="M520.964-181.511l-.011,0c-.068-.04-.471-.275-.933-.542l.935.54.01.006m-2.131-1.233c-.17-.1-.292-.168-.333-.19-.163-.1-.259-.331-.217-.688l.183-1.521-.182,1.52c-.042.356.054.595.218.689l.331.19m.044-5.9a.654.654,0,0,0-.177-.5l.016.01a.672.672,0,0,1,.161.489" transform="translate(-144.785 -118.505)"/><path class="z" d="M520.966-181.506h0l-.01-.006-.935-.54-1.187-.687-.331-.19c-.164-.094-.26-.333-.218-.689l.182-1.52.4-3.352a1.324,1.324,0,0,0,.008-.148.672.672,0,0,0-.16-.489l2.412,1.386.017.012.006.006v.006a.553.553,0,0,1,.165.33.966.966,0,0,1,.013.162,1.2,1.2,0,0,1-.01.153l-.433,3.617-.151,1.258a1.143,1.143,0,0,0,.007.343.478.478,0,0,0,.224.351" transform="translate(-144.785 -118.509)"/><path class="e" d="M525.722-204.777l1.528,3.244a.365.365,0,0,0,.5.2l3.415-1.311c.542-.208.759.556.367,1.293l-2.472,4.638a1.547,1.547,0,0,0-.19.891l.584,4.2c.092.667-.475,1.544-.959,1.484l-3.056-.378a.753.753,0,0,0-.616.355l-3.054,3.9c-.485.62-1.052.4-.96-.376l.583-4.872a.71.71,0,0,0-.19-.67l-2.471-1.785c-.393-.283-.176-1.3.366-1.716l3.416-2.634a1.569,1.569,0,0,0,.5-.77l1.527-5.008c.243-.8.945-1.2,1.187-.684" transform="translate(-144.856 -114.073)"/><path class="w" d="M521.2-185.9c-.232,0-.4-.208-.4-.577a1.288,1.288,0,0,1,.011-.157l.583-4.872a1.21,1.21,0,0,0,.01-.153.621.621,0,0,0-.2-.517l-1.744-1.261-.727-.525a.613.613,0,0,1-.2-.512,1.636,1.636,0,0,1,.567-1.2l3.416-2.634a1.57,1.57,0,0,0,.5-.77l1.527-5.008c.169-.551.557-.915.86-.915a.354.354,0,0,1,.327.231l1.528,3.244a.358.358,0,0,0,.33.229.48.48,0,0,0,.168-.034l3.415-1.311a.493.493,0,0,1,.172-.035c.249,0,.4.248.395.587a1.618,1.618,0,0,1-.2.741l-2.472,4.638a1.648,1.648,0,0,0-.2.749,1.145,1.145,0,0,0,.01.142l.584,4.2a1.052,1.052,0,0,1,.01.147c0,.619-.482,1.339-.921,1.339h0a.373.373,0,0,1-.047,0l-3.055-.378-.044,0h0a.8.8,0,0,0-.571.358l-3.054,3.9a.785.785,0,0,1-.568.358" transform="translate(-144.856 -114.073)"/><path class="e" d="M554.375-215.626c.3-.556.246-1.129-.032-1.286-.089-.051-2.173-1.252-2.445-1.413a.38.38,0,0,0-.341-.012l-2.247.863-.741-1.574a.405.405,0,0,0-.165-.19c-.31-.17-2.385-1.379-2.449-1.415-.309-.175-.823.215-1.024.872l-1.527,5.008a1.577,1.577,0,0,1-.5.771l-3.416,2.633c-.542.418-.759,1.433-.366,1.716l2.471,1.784a.715.715,0,0,1,.19.672l-.584,4.872c-.042.355.055.595.219.689l2.452,1.417c.193.111.479.022.741-.313l3.055-3.9a.752.752,0,0,1,.616-.355l3.054.378c.485.061,1.052-.817.959-1.484l-.582-4.2a1.539,1.539,0,0,1,.189-.891l2.471-4.638" transform="translate(-150.554 -109.69)"/><path class="ad" d="M558.374-216.013a.253.253,0,0,0-.04-.017c-.236-.136-1.49-.859-2.1-1.215.662.384,2.068,1.192,2.142,1.232m-5.036-.56h0l.553-.211-.553.212m2.664-.805-.078-.045a.32.32,0,0,0-.169-.046l-.043,0,.047,0a.312.312,0,0,1,.162.044l.081.047" transform="translate(-154.581 -110.592)"/><path class="z" d="M554.451-214.674a.424.424,0,0,1-.07-.007h-.006a.375.375,0,0,1-.253-.219h0l-.784-1.672.553-.212,1.693-.647a.488.488,0,0,1,.128-.035l.043,0a.321.321,0,0,1,.169.046l.078.045.23.134c.611.355,1.865,1.078,2.1,1.215a.343.343,0,0,0-.124-.022.5.5,0,0,0-.174.034l-3.418,1.311a.453.453,0,0,1-.167.035" transform="translate(-154.581 -110.592)"/><path class="ad" d="M540.287-209.138l3-2.314a1.116,1.116,0,0,0,.121-.107,1.132,1.132,0,0,1-.12.109l-3,2.312" transform="translate(-150.935 -112.243)"/><path class="z" d="M541.65-207.2l-2.448-1.417a1.458,1.458,0,0,1,.369-.459l.413-.319,3-2.312a1.14,1.14,0,0,0,.12-.109,1.665,1.665,0,0,0,.38-.66v-.006l2.451,1.419v0a1.753,1.753,0,0,1-.2.429,1.356,1.356,0,0,1-.3.342l-1.961,1.513-1.452,1.119a1.1,1.1,0,0,0-.1.088h0l0,0c-.018.019-.037.038-.055.059h0l0,0a1.571,1.571,0,0,0-.206.3" transform="translate(-150.631 -111.984)"/><path class="ae" d="M551.694-218.894a.29.29,0,0,0-.045-.024c-.155-.086-.571-.327-1.016-.584.472.273.912.526,1.042.6l.018.012" transform="translate(-153.825 -110.023)"/><path class="x" d="M547.594-213.357l-2.451-1.419,1.528-5.006c.167-.547.554-.911.857-.911a.33.33,0,0,1,.163.041c.038.021.754.438,1.409.817.445.258.861.5,1.016.584a.323.323,0,0,0-.135-.028.7.7,0,0,0-.453.225,1.626,1.626,0,0,0-.406.692l-1.527,5.005" transform="translate(-152.291 -109.691)"/><path class="af" d="M542.455-203.018l-.016-.01-.024-.025-.554-.4.555.4a.428.428,0,0,1,.039.035" transform="translate(-151.374 -114.508)"/><path class="x" d="M544.046-202.657l-2.411-1.385a.436.436,0,0,0-.039-.035l-.555-.4-1.916-1.386c-.283-.2-.247-.785,0-1.256l2.448,1.417a1.682,1.682,0,0,0-.2.747.613.613,0,0,0,.2.512l.567.409,1.9,1.377" transform="translate(-150.554 -113.482)"/><path class="ag" d="M544.76-195.233l-.011,0c-.086-.05-.694-.4-1.286-.746l1.288.744.009,0m-1.831-1.058-.632-.364a.585.585,0,0,1-.227-.538.582.582,0,0,0,.229.538l.63.364m-.256-6.078a.647.647,0,0,0-.177-.493l.016.01a.668.668,0,0,1,.16.483" transform="translate(-151.433 -114.672)"/><path class="z" d="M544.761-195.228h0l-.009,0-1.288-.744-.534-.309-.63-.364a.582.582,0,0,1-.229-.538c0-.047,0-.1.01-.15l.586-4.873a1.424,1.424,0,0,0,.008-.153.668.668,0,0,0-.16-.483l2.411,1.385.018.012.007.006v.006a.557.557,0,0,1,.163.325.938.938,0,0,1,.013.168,1.416,1.416,0,0,1-.009.153l-.324,2.7-.261,2.17a1.015,1.015,0,0,0,.03.428.436.436,0,0,0,.2.264" transform="translate(-151.433 -114.676)"/><path class="e" d="M549.519-218.5l1.527,3.245a.366.366,0,0,0,.5.194l3.415-1.31c.543-.209.759.555.366,1.292l-2.471,4.638a1.539,1.539,0,0,0-.189.891l.582,4.2c.093.667-.474,1.544-.959,1.484l-3.054-.378a.754.754,0,0,0-.617.355l-3.055,3.9c-.485.621-1.051.4-.959-.376l.583-4.872a.712.712,0,0,0-.19-.671l-2.471-1.785c-.392-.283-.177-1.3.367-1.716l3.415-2.633a1.576,1.576,0,0,0,.5-.771l1.528-5.007c.242-.8.944-1.2,1.186-.685" transform="translate(-151.504 -110.24)"/><path class="w" d="M545-199.625c-.23,0-.4-.2-.4-.568a1.268,1.268,0,0,1,.01-.166l.583-4.872a1.416,1.416,0,0,0,.009-.153.616.616,0,0,0-.2-.518l-1.9-1.376-.567-.409a.613.613,0,0,1-.2-.512,1.635,1.635,0,0,1,.568-1.2l3.415-2.633a1.577,1.577,0,0,0,.5-.771l1.528-5.007c.168-.552.555-.915.859-.915a.352.352,0,0,1,.327.23l1.527,3.245a.359.359,0,0,0,.331.228.459.459,0,0,0,.168-.034l3.415-1.31a.473.473,0,0,1,.172-.035c.25,0,.4.247.395.587a1.619,1.619,0,0,1-.2.74l-2.471,4.638a1.633,1.633,0,0,0-.2.742.938.938,0,0,0,.01.149l.582,4.2a1.061,1.061,0,0,1,.011.147c0,.618-.483,1.339-.921,1.339h0l-.048,0-3.054-.378-.045,0a.8.8,0,0,0-.572.358l-3.055,3.9a.782.782,0,0,1-.567.358" transform="translate(-151.504 -110.24)"/><path class="e" d="M578.173-229.347c.3-.556.246-1.129-.031-1.286-.09-.05-2.175-1.252-2.446-1.413a.379.379,0,0,0-.342-.011l-2.246.862-.741-1.574a.4.4,0,0,0-.166-.189c-.309-.171-2.384-1.38-2.449-1.416-.309-.175-.823.215-1.022.872l-1.528,5.008a1.578,1.578,0,0,1-.5.771l-3.414,2.633c-.543.419-.759,1.433-.367,1.716l2.471,1.785a.71.71,0,0,1,.189.671L565-216.047c-.043.355.054.595.218.689.193.111,2.289,1.324,2.452,1.417.193.111.479.022.741-.313l3.055-3.9a.748.748,0,0,1,.615-.355l3.055.378c.485.06,1.052-.818.96-1.484l-.584-4.2a1.551,1.551,0,0,1,.191-.891l2.47-4.638" transform="translate(-157.202 -105.857)"/><path class="ad" d="M582.172-229.735l-.037-.016c-.29-.166-2.156-1.242-2.412-1.394a.32.32,0,0,0-.169-.045h0a.307.307,0,0,1,.162.044c.272.163,2.361,1.364,2.452,1.412m-5.036-.56h0l.616-.235-.616.236" transform="translate(-161.229 -106.758)"/><path class="z" d="M578.248-228.395a.338.338,0,0,1-.124-.023l0,0h0a.387.387,0,0,1-.2-.2h0l-.784-1.672.616-.236,1.63-.622a.478.478,0,0,1,.153-.037h.019a.32.32,0,0,1,.169.045c.256.152,2.122,1.228,2.412,1.394a.346.346,0,0,0-.127-.023.5.5,0,0,0-.174.034l-3.418,1.311a.462.462,0,0,1-.168.035" transform="translate(-161.229 -106.759)"/><path class="ad" d="M563.621-222.594l3.332-2.571a1.223,1.223,0,0,0,.1-.089,1,1,0,0,1-.1.09l-3.332,2.57" transform="translate(-157.453 -108.417)"/><path class="z" d="M565.448-220.922,563-222.339a1.445,1.445,0,0,1,.369-.458l.08-.061,3.332-2.57a1,1,0,0,0,.1-.09,1.643,1.643,0,0,0,.4-.678v-.006l2.451,1.418v0a1.75,1.75,0,0,1-.267.531,1.3,1.3,0,0,1-.208.22l-.024.019-3.414,2.633a1.4,1.4,0,0,0-.37.457" transform="translate(-157.28 -108.152)"/><path class="ae" d="M575.443-232.643a.266.266,0,0,0-.049-.026c-.171-.1-.652-.375-1.141-.657.518.3,1.027.593,1.17.671l.019.012" transform="translate(-160.424 -106.162)"/><path class="x" d="M571.391-227.079,568.94-228.5l1.528-5.005c.166-.548.554-.912.858-.912a.326.326,0,0,1,.162.041c.036.02.664.385,1.281.743.488.283.969.561,1.141.657a.323.323,0,0,0-.132-.027.622.622,0,0,0-.372.154,1.544,1.544,0,0,0-.488.763l-1.527,5" transform="translate(-158.939 -105.857)"/><path class="af" d="M566.118-216.836l-.018-.011-.025-.024-.9-.654.906.654a.47.47,0,0,1,.041.035" transform="translate(-157.886 -110.576)"/><path class="x" d="M567.843-216.379l-2.409-1.384a.461.461,0,0,0-.041-.035l-.906-.654-1.565-1.134c-.283-.2-.248-.784,0-1.256l2.449,1.417a1.673,1.673,0,0,0-.2.747.609.609,0,0,0,.2.512l.358.259,2.111,1.527" transform="translate(-157.202 -109.65)"/><path class="ag" d="M568.558-208.953l-.011,0-1.027-.6c.474.274.908.526,1.015.586a.164.164,0,0,0,.024.014m-2.322-1.342-.14-.081a.331.331,0,0,1-.056-.04.334.334,0,0,0,.057.04l.139.081m-.295-.252a.914.914,0,0,1-.063-.517l.183-1.521-.182,1.52a.913.913,0,0,0,.062.518m.529-5.532a.658.658,0,0,0-.176-.5l.018.011a.674.674,0,0,1,.157.494" transform="translate(-158.081 -110.84)"/><path class="z" d="M568.534-208.964c-.107-.061-.541-.312-1.015-.586l-1.284-.742-.139-.081a.333.333,0,0,1-.057-.04.433.433,0,0,1-.1-.131.912.912,0,0,1-.062-.518l.182-1.52.4-3.352a1.208,1.208,0,0,0,.008-.141.674.674,0,0,0-.157-.494l2.409,1.384.018.012.006.007v.006a.557.557,0,0,1,.165.328,1.028,1.028,0,0,1,.011.158,1.135,1.135,0,0,1-.01.16l-.441,3.689-.142,1.186a1.187,1.187,0,0,0,0,.292v0a0,0,0,0,0,0,0,.508.508,0,0,0,.2.381" transform="translate(-158.081 -110.844)"/><path class="e" d="M573.317-232.219l1.527,3.245a.364.364,0,0,0,.5.194l3.416-1.31c.543-.208.759.555.366,1.292l-2.47,4.638a1.551,1.551,0,0,0-.191.891l.584,4.2c.092.667-.475,1.544-.96,1.484l-3.055-.378a.748.748,0,0,0-.615.355l-3.056,3.9c-.485.621-1.052.4-.959-.376l.582-4.872a.71.71,0,0,0-.189-.671l-2.471-1.785c-.392-.283-.176-1.3.367-1.716l3.414-2.633a1.574,1.574,0,0,0,.5-.771l1.528-5.007c.242-.8.943-1.2,1.186-.685" transform="translate(-158.152 -106.407)"/><path class="w" d="M568.793-213.346c-.2,0-.356-.155-.393-.437v0a1.081,1.081,0,0,1-.009-.129,1.473,1.473,0,0,1,.011-.166l.582-4.872a1.162,1.162,0,0,0,.01-.16.614.614,0,0,0-.2-.511l-2.113-1.526-.358-.259a.609.609,0,0,1-.2-.512,1.64,1.64,0,0,1,.568-1.2l3.414-2.633a1.574,1.574,0,0,0,.5-.771l1.528-5.007c.167-.552.555-.915.859-.915a.353.353,0,0,1,.327.23l1.527,3.245a.358.358,0,0,0,.331.228.455.455,0,0,0,.167-.034l3.416-1.31a.472.472,0,0,1,.172-.035c.25,0,.4.247.395.587a1.608,1.608,0,0,1-.2.74l-2.47,4.638a1.655,1.655,0,0,0-.2.749,1.136,1.136,0,0,0,.009.142l.584,4.2a1.062,1.062,0,0,1,.01.147c0,.619-.483,1.34-.921,1.34h0l-.047,0-3.055-.378a.328.328,0,0,0-.044,0h0a.8.8,0,0,0-.57.357l-3.055,3.9a.783.783,0,0,1-.568.358" transform="translate(-158.152 -106.407)"/><path class="e" d="M601.971-243.068c.3-.556.245-1.129-.033-1.286-.088-.051-2.174-1.252-2.445-1.413a.38.38,0,0,0-.341-.011l-2.247.862-.741-1.574a.408.408,0,0,0-.166-.189c-.308-.171-2.385-1.379-2.449-1.416-.308-.175-.823.215-1.022.873L591-242.214a1.579,1.579,0,0,1-.5.77l-3.414,2.633c-.543.419-.76,1.433-.367,1.716l2.471,1.785a.712.712,0,0,1,.19.671l-.583,4.872c-.043.356.054.595.217.689l2.453,1.418c.193.111.479.021.741-.314l3.055-3.9a.749.749,0,0,1,.616-.355l3.055.378c.484.06,1.052-.817.96-1.484l-.584-4.2a1.547,1.547,0,0,1,.19-.891l2.472-4.639" transform="translate(-163.85 -102.024)"/><path class="ad" d="M605.968-243.455a.231.231,0,0,0-.035-.016l-1.647-.949c.7.405,1.623.934,1.682.966m-5.035-.56v0l.787-.3-.786.3m2.667-.8-.081-.048a.326.326,0,0,0-.17-.045h-.026l.031,0a.309.309,0,0,1,.162.044l.084.05" transform="translate(-167.877 -102.925)"/><path class="z" d="M602.045-242.116a.274.274,0,0,1-.057,0h-.006a.352.352,0,0,1-.088-.029h0a.4.4,0,0,1-.173-.191l-.785-1.671.786-.3,1.459-.557a.488.488,0,0,1,.145-.036h.026a.327.327,0,0,1,.17.045l.081.048.686.4,1.647.949a.352.352,0,0,0-.129-.023.517.517,0,0,0-.174.033l-3.419,1.311a.453.453,0,0,1-.167.035" transform="translate(-167.877 -102.926)"/><path class="ad" d="M587.393-236.308l3.349-2.585a.972.972,0,0,0,.121-.108,1.05,1.05,0,0,1-.12.109l-3.35,2.584" transform="translate(-164.094 -104.576)"/><path class="z" d="M589.244-234.643,586.8-236.06a1.428,1.428,0,0,1,.368-.458l.062-.048,3.351-2.584a1.048,1.048,0,0,0,.12-.109,1.655,1.655,0,0,0,.38-.659v-.007l2.45,1.419v0a1.764,1.764,0,0,1-.254.513,1.314,1.314,0,0,1-.246.258l-1.376,1.062-2.038,1.571a1.408,1.408,0,0,0-.37.456" transform="translate(-163.928 -104.318)"/><path class="ae" d="M599.224-246.373a.263.263,0,0,0-.048-.026c-.177-.1-.678-.389-1.18-.68.531.308,1.064.615,1.211.694l.017.012" transform="translate(-167.056 -102.32)"/><path class="x" d="M595.187-240.8l-2.45-1.419,1.528-5.006c.167-.547.555-.911.858-.911a.329.329,0,0,1,.162.041c.036.019.638.371,1.241.72.5.291,1,.581,1.18.68a.324.324,0,0,0-.133-.027.614.614,0,0,0-.363.148,1.543,1.543,0,0,0-.5.769l-1.527,5.005" transform="translate(-165.587 -102.025)"/><path class="af" d="M590.052-230.458l-.019-.012-.023-.024-.553-.4.554.4a.29.29,0,0,1,.041.036" transform="translate(-164.671 -106.842)"/><path class="x" d="M591.64-230.1l-2.409-1.384a.286.286,0,0,0-.041-.036l-.554-.4-1.917-1.387c-.283-.206-.247-.785,0-1.257l2.448,1.417a1.672,1.672,0,0,0-.2.747.614.614,0,0,0,.2.513l.556.4,1.914,1.386" transform="translate(-163.85 -105.816)"/><path class="ag" d="M592.356-222.674l-.013,0c-.076-.045-.569-.331-1.094-.636l1.1.634.011.006m-2.216-1.281c-.126-.073-.215-.124-.249-.142-.163-.1-.259-.332-.217-.689l.179-1.489-.178,1.488c-.043.356.054.595.217.689l.248.143m.128-5.85a.654.654,0,0,0-.178-.5l.019.012a.677.677,0,0,1,.159.489" transform="translate(-164.729 -107.006)"/><path class="z" d="M592.358-222.669h0l-.011-.006-1.1-.634-1.109-.641-.248-.143c-.163-.094-.26-.332-.217-.689l.178-1.488.407-3.383a1.3,1.3,0,0,0,.008-.146.677.677,0,0,0-.159-.489l2.409,1.384.018.012.006.006v.007a.564.564,0,0,1,.167.341,1.083,1.083,0,0,1,.011.151,1.425,1.425,0,0,1-.01.153l-.359,3-.226,1.876a1.191,1.191,0,0,0,0,.317.486.486,0,0,0,.229.376" transform="translate(-164.729 -107.01)"/><path class="e" d="M597.114-245.94l1.528,3.245a.364.364,0,0,0,.5.2l3.416-1.311c.542-.208.759.556.367,1.292l-2.472,4.639a1.547,1.547,0,0,0-.19.891l.584,4.2c.092.667-.476,1.543-.96,1.484l-3.055-.378a.749.749,0,0,0-.616.356l-3.055,3.9c-.484.621-1.052.4-.96-.375l.584-4.872a.712.712,0,0,0-.19-.671l-2.472-1.784c-.392-.284-.175-1.3.367-1.716l3.416-2.634a1.578,1.578,0,0,0,.5-.77l1.527-5.008c.242-.8.944-1.2,1.187-.685" transform="translate(-164.8 -102.574)"/><path class="w" d="M592.59-227.067c-.23,0-.4-.2-.4-.568a1.421,1.421,0,0,1,.01-.165l.584-4.872a1.425,1.425,0,0,0,.01-.153.623.623,0,0,0-.2-.518l-1.916-1.384-.556-.4a.614.614,0,0,1-.2-.513,1.636,1.636,0,0,1,.567-1.2l3.416-2.634a1.578,1.578,0,0,0,.5-.77l1.527-5.008c.168-.552.556-.915.859-.915a.354.354,0,0,1,.328.23l1.528,3.245a.356.356,0,0,0,.33.228.468.468,0,0,0,.167-.033l3.416-1.311a.493.493,0,0,1,.172-.035c.249,0,.4.247.395.587a1.615,1.615,0,0,1-.2.74l-2.472,4.639a1.65,1.65,0,0,0-.2.749,1.133,1.133,0,0,0,.01.142l.584,4.2a1.208,1.208,0,0,1,.01.146c0,.619-.483,1.34-.922,1.34h0l-.047,0-3.055-.378-.043,0h0a.8.8,0,0,0-.572.358l-3.055,3.9a.782.782,0,0,1-.568.358" transform="translate(-164.8 -102.574)"/><path class="d" d="M606.7-576.849l-7.681,3.291-1.644,8.193a1.235,1.235,0,0,1-2.142.571l-5.5-6.288-8.3.969a1.237,1.237,0,0,1-1.206-1.862l4.281-7.177-3.486-7.595a1.237,1.237,0,0,1,1.4-1.722l8.147,1.853,6.147-5.662a1.237,1.237,0,0,1,2.07.8l.755,8.322,7.284,4.1a1.236,1.236,0,0,1-.119,2.215" transform="translate(-162.042 -5.793)"/><path class="d" d="M538.926-606.8l-.06.119a.4.4,0,0,0,.1.418l3.715,3.621-.877,5.112a.4.4,0,0,0,.162.4.4.4,0,0,0,.43.033l4.592-2.415,4.591,2.412a.4.4,0,0,0,.43-.031.394.394,0,0,0,.162-.4l-.877-5.113,3.714-3.621a.414.414,0,0,0,.1-.417.4.4,0,0,0-.33-.277l-5.133-.746-2.3-4.652a.4.4,0,0,0-.365-.227.4.4,0,0,0-.366.228l-2.295,4.652-5.134.747a.4.4,0,0,0-.268.158Zm13.714,9.977a1.123,1.123,0,0,1-.236.232,1.067,1.067,0,0,1-1.133.083l-4.281-2.25-4.281,2.251a1.067,1.067,0,0,1-1.133-.083,1.066,1.066,0,0,1-.429-1.052l.817-4.767-3.463-3.375a1.072,1.072,0,0,1-.273-1.1,1.07,1.07,0,0,1,.869-.732l4.786-.7,2.141-4.337a1.073,1.073,0,0,1,.964-.6,1.07,1.07,0,0,1,.965.6l2.141,4.337,4.787.695a1.071,1.071,0,0,1,.868.731,1.066,1.066,0,0,1-.272,1.1h0l-3.463,3.375.819,4.766a1.08,1.08,0,0,1-.192.822" transform="translate(-150.345 -0.025)"/><path class="ah" d="M457.554-502.4c-7.234-4.193-17.185-3.621-28.173,2.723-22.125,12.773-40.059,44.071-40.059,69.909,0,13,4.552,22.117,11.888,26.352,1.695.979,8.35,4.778,8.344,4.815a18.31,18.31,0,0,1-9.333,14.085c-.419.247-.154.653.215.871.153.09,9.779,5.646,10.153,5.863a.978.978,0,0,0,.459.141c10,.017,21.579-6.72,24.8-20.7,1.211-.571,2.433-1.2,3.671-1.916,22.125-12.773,40.059-44.072,40.059-69.909,0-13-4.546-22.138-11.879-26.381-1.706-.988-8.46-4.874-10.148-5.852" transform="translate(-108.761 -30.242)"/><path class="ai" d="M443.453-491.553c-22.123,12.772-40.057,44.071-40.057,69.908,0,17.529,8.26,28.026,20.477,28.985-.455,5.575-2.083,11.84-9.578,16.267-.593.35.184,1.019.685,1.02,10,.017,21.579-6.72,24.8-20.7,1.211-.571,2.433-1.2,3.671-1.916,22.124-12.773,40.058-44.072,40.058-69.909s-17.934-36.427-40.058-23.653" transform="translate(-112.693 -32.51)"/><path class="aj" d="M414.507-337.379c-.362.225-.2.562.1.8-1.2-.687-9.887-5.693-10.024-5.78-.376-.225-.638-.624-.213-.873a18.3,18.3,0,0,0,9.326-14.083l1.111.65,1.012.6a20.078,20.078,0,0,0,8.263,2.421c-.449,5.568-2.084,11.836-9.574,16.267" transform="translate(-112.904 -71.523)"/><path d="M451.07-461.751l10.862-6.271L460.121-431.4l-7.24,4.181Zm1.432,52.235q-1.607-1.134-1.607-4.094a12.126,12.126,0,0,1,1.577-5.854,10.739,10.739,0,0,1,4.03-4.312q2.453-1.415,4.029-.34t1.577,4.033a12.485,12.485,0,0,1-1.607,5.95,10.72,10.72,0,0,1-4,4.373q-2.4,1.382-4,.246" transform="translate(-125.962 -40.598)"/><path class="ak" d="M540.558-331.483c-4.087.043-7.132-2.815-9.045-6.419,12.257-15.076,20.549-35.157,20.549-52.72,0-13.024-4.56-22.17-11.916-26.4-1.7-.977-8.44-4.863-10.134-5.842-7.233-4.179-17.174-3.6-28.152,2.736C479.737-407.36,461.8-376.06,461.8-350.224c0,13,4.541,22.134,11.871,26.378,1.709.991,8.444,4.857,10.115,5.83,7.239,4.219,17.206,3.657,28.215-2.7a61.541,61.541,0,0,0,8.365-5.859c7.443,5.887,16.514-.53,20.107-3.6.481-.411.534-1.312.082-1.308" transform="translate(-129.009 -52.465)"/><path class="i" d="M498.449-313.413c-13.388,0-21.7-10.9-21.7-28.446,0-25.6,17.83-56.714,39.746-69.368,6.128-3.538,11.988-5.333,17.416-5.333,13.388,0,21.7,10.9,21.7,28.446,0,16.792-7.82,36.842-20.409,52.326l-.26.321.193.365c2.259,4.256,5.534,6.642,9.247,6.749l-.136.211c-2.558,2.186-7.631,5.852-12.888,5.852h0a10.145,10.145,0,0,1-6.425-2.266l-.4-.312-.389.321a60.99,60.99,0,0,1-8.281,5.8c-6.128,3.539-11.988,5.333-17.416,5.333" transform="translate(-133.184 -54.974)"/><path class="a" d="M522.244-327.363q-1.607-1.136-1.606-4.094a12.142,12.142,0,0,1,1.576-5.855,10.75,10.75,0,0,1,4.03-4.311q2.452-1.417,4.028-.339t1.578,4.033a12.483,12.483,0,0,1-1.606,5.949,10.71,10.71,0,0,1-4,4.373q-2.394,1.382-4,.246Zm.934-24.714a72.221,72.221,0,0,1,4-8.15,62.386,62.386,0,0,0,2.833-5.567,10.505,10.505,0,0,0,.9-4.142q0-2.878-1.722-3.56t-4.584.972a16.8,16.8,0,0,0-4.876,4.333,26.79,26.79,0,0,0-3.591,6.317l-7.065-1.449a41.965,41.965,0,0,1,6.627-11.534,35.574,35.574,0,0,1,9.9-8.439q6.715-3.876,10.774-2.406t4.058,8.247a22.793,22.793,0,0,1-.787,6.059,29.906,29.906,0,0,1-1.927,5.2q-1.139,2.332-2.949,5.558a64.831,64.831,0,0,0-3.153,6.141,12.126,12.126,0,0,0-.994,4.816l-8.817,5.092a20.009,20.009,0,0,1,1.372-7.488" transform="translate(-142.216 -63.48)"/><path class="e" d="M229.848-399.626l-44.2,25.592,17.557,29.849a3.987,3.987,0,0,0,1.68,1.879c2.1,1.19,14.5,8.37,15.184,8.767A4.058,4.058,0,0,0,226-335.9l19.062-54.942-15.213-8.784" transform="translate(-51.863 -59.705)"/><path class="x" d="M226.3-326.12a4.061,4.061,0,0,1-2.037-.54c-.686-.4-13.087-7.577-15.184-8.767a3.987,3.987,0,0,1-1.68-1.879l-6.731-11.443L246.15-375,230.2-329.021a3.993,3.993,0,0,1-3.892,2.9" transform="translate(-56.06 -66.582)"/><path class="w" d="M206.759-361.844,224.317-332a4.047,4.047,0,0,0,7.579-.5l19.062-54.942-44.2,25.592" transform="translate(-57.76 -63.109)"/><path class="e" d="M249.317-612.41,82.636-516.18a8.455,8.455,0,0,0-3.826,6.626v115.683a8.349,8.349,0,0,0,3.848,6.59L96.363-379.6a8.566,8.566,0,0,0,7.673-.038l166.683-96.228a8.455,8.455,0,0,0,3.825-6.627V-598.174a8.352,8.352,0,0,0-3.847-6.59l-13.706-7.684a8.571,8.571,0,0,0-7.674.038" transform="translate(-22.016 -0.002)"/><path class="a" d="M80.473-513.461l0,0a7.866,7.866,0,0,1,2.405-2.584,7.945,7.945,0,0,0-2.4,2.586m121.5-71.349,47.819-27.608a7.891,7.891,0,0,1,3.867-.925,7.925,7.925,0,0,1,3.8.891l13.7,7.68a8.324,8.324,0,0,1,3.374,4.2,8.294,8.294,0,0,0-3.371-4.188l-13.706-7.684a7.9,7.9,0,0,0-3.794-.888,7.94,7.94,0,0,0-3.88.926l-47.809,27.6" transform="translate(-22.48)"/><path class="w" d="M101.806-501.292h0L80.49-513.461l0,.008-.011-.006a7.945,7.945,0,0,1,2.4-2.586c.075-.048.152-.093.228-.137l118.867-68.626,47.809-27.6a7.94,7.94,0,0,1,3.88-.926,7.9,7.9,0,0,1,3.794.888l13.706,7.684a8.294,8.294,0,0,1,3.371,4.188,7.335,7.335,0,0,1,.427,1.707,2.107,2.107,0,0,0-2.07-2.042,3.5,3.5,0,0,0-1.712.522L104.509-504.154a7.821,7.821,0,0,0-2.7,2.862" transform="translate(-22.481 -0.002)"/><path class="z" d="M108.507-376.413V-492.094a8.457,8.457,0,0,1,3.826-6.627l166.683-96.228c2.113-1.221,3.825-.232,3.825,2.208v115.683a8.456,8.456,0,0,1-3.825,6.627L112.332-374.2c-2.112,1.22-3.826.231-3.826-2.209" transform="translate(-30.312 -4.992)"/><path class="al" d="M102.464-289.913a6.223,6.223,0,0,1-2.329-.766l-7.8-4.383,7.806,4.377a7.035,7.035,0,0,0,2.323.773" transform="translate(-25.795 -88.916)"/><path class="am" d="M81.037-348.9a8.347,8.347,0,0,1-2.233-5.259V-469.853a6.06,6.06,0,0,1,.166-1.365,6.209,6.209,0,0,0-.161,1.366V-354.17a8.372,8.372,0,0,0,2.229,5.266" transform="translate(-22.015 -39.704)"/><path class="x" d="M100.076-340.009a9.863,9.863,0,0,1-1.39-.1,7.034,7.034,0,0,1-2.323-.773l-7.806-4.377-5.9-3.315a6.592,6.592,0,0,1-1.619-1.315,8.372,8.372,0,0,1-2.229-5.266V-470.834a6.208,6.208,0,0,1,.161-1.366,8.954,8.954,0,0,1,1.049-2.533l21.32,12.161a7.613,7.613,0,0,0-1.131,3.764v115.675q0,.046,0,.092v.358a2.576,2.576,0,0,0,1.31,2.572,10.3,10.3,0,0,1-1.444.1" transform="translate(-22.016 -38.723)"/><path class="an" d="M101.81-462.575,80.49-474.736l0-.008,21.315,12.169" transform="translate(-22.486 -38.719)"/><path class="u" d="M109.816-289.059a2.576,2.576,0,0,1-1.31-2.572v-.358c.032,1.568.85,2.648,2.135,2.648a3.032,3.032,0,0,0,1.2-.275,7.774,7.774,0,0,1-2.025.557m2.025-.557a4.883,4.883,0,0,0,.479-.242,4.653,4.653,0,0,1-.479.242m.479-.242.012-.007-.012.007" transform="translate(-30.312 -89.773)"/><path class="aa" d="M160.146-434.945l-1.67-.964a4.182,4.182,0,0,0-4.181,0l-10.149,5.86V-443.93l18.8-10.854a5.851,5.851,0,0,0,2.926-5.067v-7.787a5.852,5.852,0,0,0-2.927-5.068,5.852,5.852,0,0,0-5.85,0L131.021-457.65a10.156,10.156,0,0,0-5.078,8.8v72.247a5.851,5.851,0,0,0,2.926,5.068,5.849,5.849,0,0,0,5.85,0l6.5-3.754a5.85,5.85,0,0,0,2.926-5.068v-28.333l16-9.24a4.178,4.178,0,0,0,2.09-3.62v-9.769a4.18,4.18,0,0,0-2.091-3.621" transform="translate(-35.183 -39.07)"/><path class="ao" d="M131.789-361.836a5.778,5.778,0,0,1-2.352-.5,5.843,5.843,0,0,0,2.356.5,5.855,5.855,0,0,0,2.6-.607,5.837,5.837,0,0,1-2.6.608m-3.619-1.258a5.842,5.842,0,0,1-2.232-4.594v-72.246a9.953,9.953,0,0,1,.134-1.628,10.16,10.16,0,0,0-.131,1.626v72.247a5.85,5.85,0,0,0,2.228,4.595" transform="translate(-35.182 -47.989)"/><path class="ap" d="M131.794-363.065a5.843,5.843,0,0,1-2.356-.5,5.652,5.652,0,0,1-.568-.291,5.721,5.721,0,0,1-.7-.47,5.85,5.85,0,0,1-2.228-4.595v-72.247a10.161,10.161,0,0,1,.131-1.626,10.256,10.256,0,0,1,1.086-3.167l5.852,3.373a10.042,10.042,0,0,0-1.22,4.795v71.574a2.35,2.35,0,0,0,2.347,2.344,2.287,2.287,0,0,0,1.141-.307l-.557.327c-.109.063-.219.123-.331.18a5.855,5.855,0,0,1-2.6.607" transform="translate(-35.183 -46.762)"/><path class="ab" d="M146.414-442.373v20.637l15.973-9.221a1.412,1.412,0,0,1,2.118,1.223v9.75a4.159,4.159,0,0,1-2.079,3.6l-16.012,9.245V-378.8a5.835,5.835,0,0,1-2.918,5.055l-5.919,3.418a2.343,2.343,0,0,1-3.515-2.029v-71.569a10.156,10.156,0,0,1,5.078-8.795l25.826-14.911a2.115,2.115,0,0,1,3.172,1.83v7.527a5.807,5.807,0,0,1-2.9,5.03l-18.819,10.866" transform="translate(-37.452 -40.627)"/><path class="aa" d="M200.6-447.079l3.382-17.411q.1-.447.2-.922l3.574,14.192-7.158,4.141M213.4-494.958a6.9,6.9,0,0,0-3.171-4.036,6.964,6.964,0,0,0-3.459-.922,6.963,6.963,0,0,0-3.459.922l-6.467,3.738a6.9,6.9,0,0,0-3.3,4.506l-19.275,87.764a3.611,3.611,0,0,0,1.72,3.892l1.768,1.018a3.6,3.6,0,0,0,3.6,0l7.792-4.5a7.011,7.011,0,0,0,2.556-2.738,13.136,13.136,0,0,0,1.432-3.651l3.132-16.008,15.758-9.1,1.633,6.5a3.66,3.66,0,0,0,1.489,2.075c.653.384,5.2,2.988,5.852,3.382a2.549,2.549,0,0,0,2.586-.346l9.511-5.5L213.4-494.958" transform="translate(-48.663 -31.688)"/><path class="ao" d="M231.4-399.057c-.75-.431-1.359-.782-1.568-.906a3.66,3.66,0,0,1-1.489-2.075l-1.633-6.5,1.633,6.5a3.66,3.66,0,0,0,1.489,2.075c.209.123.818.474,1.568.906" transform="translate(-63.334 -57.213)"/><path class="ap" d="M235.608-397.6c-.573-.341-2.684-1.553-4.207-2.428-.75-.432-1.359-.783-1.568-.906a3.66,3.66,0,0,1-1.489-2.076l-1.633-6.5,4.362-2.517,3.123,12.395a3.821,3.821,0,0,0,1.412,2.037" transform="translate(-63.334 -56.237)"/><path class="ap" d="M225.229-439.025l-5.852-3.382L215.8-456.6v-.01l.01-.058c.307-1.384.615-2.959.951-4.708.413-2.181.8-4.506,1.163-7q.62,3,1.24,5.525c.413,1.681.8,3.123,1.163,4.333l4.9,19.486" transform="translate(-60.287 -40.5)"/><path class="ao" d="M179.567-394.317a3.6,3.6,0,0,1-1.8-.482L176-395.817a3.619,3.619,0,0,1-1.8-3.119,3.619,3.619,0,0,0,1.8,3.119l1.768,1.018a3.6,3.6,0,0,0,1.8.482,3.6,3.6,0,0,0,1.8-.482l.551-.317,0,.01-.548.307a3.6,3.6,0,0,1-1.8.482m13.985-93.156a6.46,6.46,0,0,1,.2-.716,6.9,6.9,0,0,0-.2.716" transform="translate(-48.663 -34.963)"/><path class="ap" d="M179.567-394.923a3.6,3.6,0,0,1-1.8-.482L176-396.422a3.619,3.619,0,0,1-1.8-3.119,3.672,3.672,0,0,1,.084-.773l19.275-87.764h0a6.909,6.909,0,0,1,.2-.716,6.884,6.884,0,0,1,.764-1.561l5.852,3.382a6.42,6.42,0,0,0-.961,2.268l-19.169,87.3a1.372,1.372,0,0,0,1.331,1.668,1.3,1.3,0,0,0,.37-.054l-.016.067-.551.317a3.6,3.6,0,0,1-1.8.482" transform="translate(-48.663 -34.357)"/><path class="ab" d="M215.935-446.291l-4.9-19.484q-.545-1.809-1.164-4.334t-1.236-5.523q-.543,3.727-1.162,6.99t-1.163,5.706l-4.868,25.015ZM235.444-426.4l-9.517,5.5a2.528,2.528,0,0,1-2.58.343,3.641,3.641,0,0,1-1.489-2.076l-3.125-12.4-20.125,11.619-3.125,16.011a13.533,13.533,0,0,1-1.435,3.653,6.97,6.97,0,0,1-2.561,2.736l-6.893,3.98a1.374,1.374,0,0,1-2.029-1.484l19.166-87.3a6.911,6.911,0,0,1,3.3-4.5l6.214-3.588a3.374,3.374,0,0,1,4.924,1.97L235.444-426.4" transform="translate(-50.992 -33.236)"/><path class="aa" d="M290.6-498.646a47,47,0,0,1-2.931,9.878,31.807,31.807,0,0,1-4.66,7.812,23.112,23.112,0,0,1-6.284,5.39,12.083,12.083,0,0,1-5.88,1.9,17.444,17.444,0,0,1-2.22-5.544,44.835,44.835,0,0,1-1.019-10.339,61.853,61.853,0,0,1,1.019-11.473,47.005,47.005,0,0,1,2.921-9.878,32.231,32.231,0,0,1,4.69-7.85,23.137,23.137,0,0,1,6.341-5.458,11.807,11.807,0,0,1,5.775-1.845,17.647,17.647,0,0,1,2.248,5.592,45.166,45.166,0,0,1,1.019,10.291,62.987,62.987,0,0,1-1.019,11.521m9.013,24.117a71.419,71.419,0,0,0,4.41-8.974,79.449,79.449,0,0,0,3.267-9.781,83.908,83.908,0,0,0,2.037-10.262,78.444,78.444,0,0,0,.712-10.5,52.481,52.481,0,0,0-1.98-15.25,23.264,23.264,0,0,0-5.573-9.973,13.493,13.493,0,0,0-2.767-2.1c-.961-.548-4.814-2.786-5.765-3.333a13.129,13.129,0,0,0-5.986-1.759q-5.073-.288-11.242,3.276a41.639,41.639,0,0,0-11.261,9.685,64.485,64.485,0,0,0-8.705,13.807,79.534,79.534,0,0,0-5.592,16.431,79.067,79.067,0,0,0-1.979,17.584,52.385,52.385,0,0,0,1.979,15.306,23.132,23.132,0,0,0,5.592,9.993,13.145,13.145,0,0,0,2.8,2.114c.951.538,4.756,2.748,5.7,3.3a13.15,13.15,0,0,0,6.063,1.758q5.073.245,11.261-3.315a36.663,36.663,0,0,0,4.987-3.459l2.383,2.738a5.17,5.17,0,0,0,1.1.855c.673.394,5.458,3.142,5.824,3.363a3.574,3.574,0,0,0,2.142.519,9.388,9.388,0,0,0,3.912-1.392l10.1-5.824-13.4-14.807" transform="translate(-69.614 -18.68)"/><path class="ao" d="M267.543-421.774c-1.317-.763-2.926-1.7-3.677-2.125.751.43,2.36,1.361,3.677,2.125" transform="translate(-73.714 -52.924)"/><path class="ap" d="M265.015-444.281c-.37-.212-.937-.541-1.572-.908-1.317-.765-2.926-1.7-3.677-2.125l-.208-.118h0a13.141,13.141,0,0,1-2.8-2.114,23.132,23.132,0,0,1-5.592-9.993,52.383,52.383,0,0,1-1.979-15.306,79.069,79.069,0,0,1,1.979-17.584,79.942,79.942,0,0,1,5.073-15.287l5.852,3.382a79.5,79.5,0,0,0-5.073,15.287,79.067,79.067,0,0,0-1.979,17.584,52.27,52.27,0,0,0,1.979,15.3,23.115,23.115,0,0,0,5.592,10,13.8,13.8,0,0,0,2.4,1.883" transform="translate(-69.614 -29.508)"/><path class="ao" d="M305.646-513.093a16.957,16.957,0,0,0-2.1-5.027h0a16.956,16.956,0,0,1,2.1,5.027" transform="translate(-84.798 -26.602)"/><path class="ap" d="M285.04-462.358c-.136,0-.272,0-.405-.012a6.365,6.365,0,0,1-4.69-2.412,7.955,7.955,0,0,1-.7-.961,12.082,12.082,0,0,0,5.88-1.9,23.114,23.114,0,0,0,6.284-5.39,31.807,31.807,0,0,0,4.66-7.812A47,47,0,0,0,299-490.725a62.989,62.989,0,0,0,1.019-11.521h0A45.167,45.167,0,0,0,299-512.536h0c-.045-.189-.092-.375-.14-.558a16.955,16.955,0,0,0-2.1-5.027l.306,0c.067,0,.134,0,.2.006a6.553,6.553,0,0,1,4.66,2.45,15.588,15.588,0,0,1,2.931,6.5,45.156,45.156,0,0,1,1.019,10.291,62.911,62.911,0,0,1-1.019,11.521,46.927,46.927,0,0,1-2.931,9.887,32.169,32.169,0,0,1-4.66,7.812,23.115,23.115,0,0,1-6.284,5.39,12.109,12.109,0,0,1-5.935,1.9" transform="translate(-78.01 -26.601)"/><path class="ao" d="M311.7-419.522l-.168-.1.154.089.014.009m-3.148-1.818c-1.19-.685-2.323-1.337-2.627-1.516a5.169,5.169,0,0,1-1.1-.855l-2.383-2.738h0l2.383,2.738a5.169,5.169,0,0,0,1.1.855c.3.178,1.436.83,2.627,1.516" transform="translate(-84.491 -52.211)"/><path class="ap" d="M311.682-420.089l-.154-.089c-.512-.3-1.775-1.026-2.98-1.72s-2.324-1.339-2.627-1.516a5.169,5.169,0,0,1-1.1-.855l-2.383-2.738c.567-.461,1.115-.942,1.662-1.441l6.572,7.552a5.24,5.24,0,0,0,1,.808" transform="translate(-84.491 -51.652)"/><path class="ab" d="M269.877-488.242a45.134,45.134,0,0,0,1.017,10.347,15.621,15.621,0,0,0,2.925,6.506,6.415,6.415,0,0,0,4.686,2.412,11.656,11.656,0,0,0,6.34-1.9,23.04,23.04,0,0,0,6.285-5.39,32.023,32.023,0,0,0,4.667-7.813,47.138,47.138,0,0,0,2.925-9.882,62.511,62.511,0,0,0,1.018-11.521,44.894,44.894,0,0,0-1.018-10.292,15.653,15.653,0,0,0-2.925-6.5,6.54,6.54,0,0,0-4.667-2.451,11.25,11.25,0,0,0-6.285,1.839,23.122,23.122,0,0,0-6.34,5.449,32.473,32.473,0,0,0-4.686,7.851,47.081,47.081,0,0,0-2.925,9.883A62.126,62.126,0,0,0,269.877-488.242Zm45.409,29.827-10.1,5.83a9.485,9.485,0,0,1-3.9,1.387,4.044,4.044,0,0,1-3.216-1.361l-6.574-7.557a37.4,37.4,0,0,1-6.648,4.9q-6.177,3.564-11.262,3.313a12.964,12.964,0,0,1-8.7-3.786,23.179,23.179,0,0,1-5.6-10,52.53,52.53,0,0,1-1.979-15.3,79.492,79.492,0,0,1,1.979-17.586,79.768,79.768,0,0,1,5.6-16.429,64.4,64.4,0,0,1,8.7-13.8,41.906,41.906,0,0,1,11.262-9.691q6.174-3.564,11.243-3.276a13.1,13.1,0,0,1,8.664,3.807,23.183,23.183,0,0,1,5.576,9.98,52.294,52.294,0,0,1,1.981,15.246,78.3,78.3,0,0,1-.709,10.5,84.107,84.107,0,0,1-2.035,10.265A79.663,79.663,0,0,1,306.3-482.2a70.619,70.619,0,0,1-4.414,8.981l13.4,14.8" transform="translate(-71.881 -19.988)"/></g></svg>