<svg xmlns="http://www.w3.org/2000/svg" width="54" height="54" viewBox="0 0 54 54"><defs><style>.a{fill:#fff;}.b{fill:#13b59c;}</style></defs><g transform="translate(-1014 -1142)"><circle class="a" cx="27" cy="27" r="27" transform="translate(1014 1142)"/><path class="b" d="M21.114,1026.5a.978.978,0,0,1,.532.165,1.357,1.357,0,0,1,.576,1.132v.012a.605.605,0,0,0,.168.423.619.619,0,0,0,.139.111h0a.6.6,0,0,0,.109.05h0a.612.612,0,0,0,.113.025h.123a.111.111,0,0,0,.061-.012.514.514,0,0,0,.059-.014l.019-.012c.012,0,.024-.012.035-.012h0c.019-.012.037-.014.054-.024a.583.583,0,0,0,.1-.069h0c.014-.012.027-.024.04-.037h0a.6.6,0,0,0,.076-.092c.011-.017.021-.034.031-.052a.6.6,0,0,0,.071-.291v-.012a1.5,1.5,0,0,1,.04-.345,1.3,1.3,0,0,1,.536-.787.944.944,0,0,1,1.063,0,1.359,1.359,0,0,1,.579,1.132v.012a.6.6,0,0,0,.168.423.619.619,0,0,0,.139.111h0a.6.6,0,0,0,.109.05h0a.732.732,0,0,0,.113.027h.062a.41.41,0,0,0,.123-.012.514.514,0,0,0,.059-.014l.019-.012c.012,0,.024-.012.035-.012h0a.581.581,0,0,0,.154-.089h0c.014-.012.027-.024.04-.037h0a.6.6,0,0,0,.177-.435s0-.012,0-.012a1.358,1.358,0,0,1,.577-1.132.944.944,0,0,1,1.063,0,1.359,1.359,0,0,1,.579,1.122c0,.012,0,.012,0,.019a.6.6,0,0,0,.536.609h.062a.611.611,0,0,0,.22-.04h.029a.191.191,0,0,1,.045-.019c.018-.012.035-.019.052-.03s.034-.024.05-.037a.6.6,0,0,0,.222-.475.13.13,0,0,1,0-.019,1.358,1.358,0,0,1,.579-1.122.943.943,0,0,1,1.063,0,1.353,1.353,0,0,1,.574,1.11,5.848,5.848,0,0,1-1.661,4.014H21.668a5.849,5.849,0,0,1-1.661-4.014,1.354,1.354,0,0,1,.576-1.11.985.985,0,0,1,.532-.166Zm1.243,6.5h7.87v1.077h-7.87Zm-.279,2.287h8.359c8.014,6.7,10.079,12.766,10.079,17.283v.525c0,1.9-1.347,3.7-3.719,5.061a19.394,19.394,0,0,1-9.439,2.226h-2.2a19.391,19.391,0,0,1-9.439-2.226c-2.372-1.36-3.717-3.158-3.717-5.061v-.525C12,1048.048,14.064,1041.981,22.078,1035.282Zm4.506,5.741a7.862,7.862,0,1,0,7.884,7.861.605.605,0,0,0-.047-.236h0a7.86,7.86,0,0,0-7.835-7.622Zm0,1.21a6.652,6.652,0,1,1-6.632,6.651A6.66,6.66,0,0,1,26.583,1042.233Zm-2.953,2.453v.012H23.6v1.21h1.243a1.772,1.772,0,0,1,1.9,1.2H23.63v1.21h3.121a1.774,1.774,0,0,1-1.9,1.2H23.6v.825l-.035.035.035.035v.314h.321l3.728,3.643.846-.865-2.92-2.852a3.035,3.035,0,0,0,2.412-2.334h1.652v-1.21H27.991a3,3,0,0,0-.579-1.21h2.23v-1.21Z" transform="translate(1014.741 125.568)"/></g></svg>