<svg xmlns="http://www.w3.org/2000/svg" width="54" height="54" viewBox="0 0 54 54"><defs><style>.a{fill:#fff;}.b{fill:none;}.c{fill:#13b59c;}</style></defs><g transform="translate(-414 -1142)"><circle class="a" cx="27" cy="27" r="27" transform="translate(414 1142)"/><g transform="translate(419 1147)"><path class="b" d="M0,0H44V44H0Z"/><path class="c" d="M33,16A5.5,5.5,0,1,0,31.332,5.257a9.046,9.046,0,0,1,1.65,5.243,9.224,9.224,0,0,1-1.65,5.243A5.481,5.481,0,0,0,33,16Zm-9.167,0a5.5,5.5,0,1,0-5.5-5.5A5.477,5.477,0,0,0,23.833,16Zm0,3.667c-3.667,0-11,1.833-11,5.5V27a1.839,1.839,0,0,0,1.833,1.833H33A1.839,1.839,0,0,0,34.833,27V25.167C34.833,21.5,27.5,19.667,23.833,19.667Zm12.137.293a6.783,6.783,0,0,1,2.53,5.207v2.75a5.013,5.013,0,0,1-.092.917h4.675A.908.908,0,0,0,44,27.917v-2.75C44,22.343,39.655,20.6,35.97,19.96Z" transform="translate(0 4.167)"/><path class="c" d="M23.833,16A5.5,5.5,0,1,1,25.5,5.257a9.046,9.046,0,0,0-1.65,5.243,9.224,9.224,0,0,0,1.65,5.243A5.481,5.481,0,0,1,23.833,16ZM33,16a5.5,5.5,0,1,1,5.5-5.5A5.477,5.477,0,0,1,33,16Zm0,3.667c3.667,0,11,1.833,11,5.5V27a1.839,1.839,0,0,1-1.833,1.833H23.833A1.839,1.839,0,0,1,22,27V25.167C22,21.5,29.333,19.667,33,19.667Zm-12.137.293a6.783,6.783,0,0,0-2.53,5.207v2.75a5.013,5.013,0,0,0,.092.917H13.75a.908.908,0,0,1-.917-.917v-2.75C12.833,22.343,17.178,20.6,20.863,19.96Z" transform="translate(-10 4.167)"/></g></g></svg>