<svg xmlns="http://www.w3.org/2000/svg" width="54" height="54" viewBox="0 0 54 54"><defs><style>.a{fill:#f5fffd;}.b{fill:#13b59c;}.c{fill:#fff;}.d{fill:#ffe65c;}.e{fill:#128976;}.f{fill:#0e8976;}</style></defs><g transform="translate(-114 -1142)"><circle class="a" cx="27" cy="27" r="27" transform="translate(114 1142)"/><g transform="translate(124.998 1153)"><path class="b" d="M23.683,22.669V29.5a2,2,0,0,1-2,2h-19a2,2,0,0,1-2-2V2.5a2,2,0,0,1,2-2h14l7,7Z"/><path class="c" d="M16.683,3.5h-12a1,1,0,0,0-1,1v2a1,1,0,0,0,1,1h14Zm-3,25.425a2.761,2.761,0,0,1-1.591-.471,1.926,1.926,0,0,0-2.153,0,2.761,2.761,0,0,1-1.591.471,2.752,2.752,0,0,1-1.589-.472,1.778,1.778,0,0,0-1.075-.329.5.5,0,1,1,0-1,2.752,2.752,0,0,1,1.589.472,1.778,1.778,0,0,0,1.075.329A1.78,1.78,0,0,0,9.424,27.6a2.923,2.923,0,0,1,3.183,0,1.78,1.78,0,0,0,1.077.329.5.5,0,1,1,0,1Z"/><path class="d" d="M31.32,14.42a1.526,1.526,0,0,1-.44,1.06L19.92,26.44,17.8,24.31,28.76,13.35a1.5,1.5,0,0,1,2.56,1.07Z"/><path class="e" d="M17.089,27.849l-.707-.707L17.8,24.314l2.121,2.121Z"/><path class="e" d="M15.828,28.981a.5.5,0,0,1-.387-.838l.923-1a.5.5,0,1,1,.737.676l-.923,1A.5.5,0,0,1,15.828,28.981Z"/><rect class="c" width="2" height="2" rx="1" transform="translate(3.683 10.5)"/><rect class="c" width="2" height="2" rx="1" transform="translate(3.683 15.5)"/><rect class="c" width="2" height="2" rx="1" transform="translate(3.683 20.5)"/><path class="c" d="M20.683,13h-12a.5.5,0,0,1,0-1h12a.5.5,0,0,1,0,1Zm0-2h-12a.5.5,0,0,1,0-1h12a.5.5,0,0,1,0,1Zm0,5h-12a.5.5,0,0,1,0-1h12a.5.5,0,0,1,0,1Zm0,2h-12a.5.5,0,0,1,0-1h12a.5.5,0,0,1,0,1Zm-4,3h-8a.5.5,0,0,1,0-1h8a.5.5,0,0,1,0,1Zm0,2h-8a.5.5,0,0,1,0-1h8a.5.5,0,0,1,0,1Z"/><path class="f" d="M23.683,7.5h-5a2,2,0,0,1-2-2V.5Zm7.637,6.92a1.526,1.526,0,0,1-.44,1.06l-1,1-2.13-2.12,1.01-1.01a1.5,1.5,0,0,1,2.56,1.07Z"/></g></g></svg>