<svg xmlns="http://www.w3.org/2000/svg" width="128" height="135" viewBox="0 0 128 135">
  <g id="Group_12353" data-name="Group 12353" transform="translate(3682 -9372.317)">
    <g id="Group_12351" data-name="Group 12351" transform="translate(-3681 9379.132)">
      <circle id="Ellipse_391" data-name="Ellipse 391" cx="64" cy="64" r="64" transform="translate(-1 0.186)" fill="#13b59c" opacity="0.34"/>
      <circle id="Ellipse_390" data-name="Ellipse 390" cx="57.5" cy="57.5" r="57.5" transform="translate(6 7.186)" fill="#13b59c" opacity="0.34"/>
      <circle id="Ellipse_389" data-name="Ellipse 389" cx="51" cy="51" r="51" transform="translate(12 13.186)" fill="#13b59c" opacity="0.34"/>
      <circle id="Ellipse_388" data-name="Ellipse 388" cx="41.5" cy="41.5" r="41.5" transform="translate(22 23.186)" fill="#13b59c"/>
      <circle id="Ellipse_385" data-name="Ellipse 385" cx="3.5" cy="3.5" r="3.5" transform="translate(86 -6.814)" fill="#1fcb40"/>
      <circle id="Ellipse_386" data-name="Ellipse 386" cx="5" cy="5" r="5" transform="translate(84 20.186)" fill="#fcb227"/>
      <ellipse id="Ellipse_387" data-name="Ellipse 387" cx="3" cy="2.5" rx="3" ry="2.5" transform="translate(60 11.186)" fill="#fd2a2a"/>
      <path id="Path_108090" data-name="Path 108090" d="M-3493.521,8453.214a28.457,28.457,0,0,1,8.026,7.627c3.389,4.906,5.76,7.852,5.76,7.852a128.177,128.177,0,0,1,11.242-20.445,74.408,74.408,0,0,1,16.971-17.3" transform="translate(3533.522 -8385.633)" fill="none" stroke="#fff" stroke-linecap="round" stroke-linejoin="round" stroke-width="8"/>
    </g>
  </g>
</svg>
