<svg xmlns="http://www.w3.org/2000/svg" width="54" height="54" viewBox="0 0 54 54"><defs><style>.a{fill:#fff;}.b{fill:#13b59c;}</style></defs><g transform="translate(-114 -1142)"><circle class="a" cx="27" cy="27" r="27" transform="translate(114 1142)"/><g transform="translate(118.9 1145.7)"><path class="b" d="M25.46,27.144c-.387-.548-.741-1.1-1.128-1.643a.244.244,0,0,1-.064-.129,10.93,10.93,0,0,0,2.352-3.609h.064c.709.129,1.45.258,2.159.419h.1a15.489,15.489,0,0,0,.58-2.094,12.6,12.6,0,0,0,.226-2.159h-.032c-.677-.129-1.385-.258-2.062-.387a.466.466,0,0,1-.226-.064,11.281,11.281,0,0,0-.87-4.156,3.12,3.12,0,0,1,.29-.226c.548-.387,1.1-.773,1.643-1.128A13.06,13.06,0,0,0,26.04,8.392c-.58.419-1.16.805-1.74,1.224a.348.348,0,0,1-.226.1A11.23,11.23,0,0,0,20.5,7.393V7.232c.1-.354.129-.741.226-1.128h0c.064-.354.129-.709.193-1.031h0a14.94,14.94,0,0,0-2.062-.548h0A15.876,15.876,0,0,0,16.729,4.3h0l-.193,1.063h0c-.064.387-.161.741-.193,1.128,0,.064-.032.1-.032.161a10.667,10.667,0,0,0-4.156.87c-.064-.032-.1-.1-.161-.193-.387-.58-.805-1.16-1.192-1.772A13.06,13.06,0,0,0,7.224,8.005c.387.548.773,1.1,1.128,1.643a2.185,2.185,0,0,1,.193.29,11.084,11.084,0,0,0-2.32,3.544A.629.629,0,0,1,6,13.45c-.677-.161-1.385-.258-2.062-.387H3.906a11.878,11.878,0,0,0-.58,2.094A12.274,12.274,0,0,0,3.1,17.317a.118.118,0,0,1,.1.032c.709.129,1.45.258,2.159.387.032,0,.064,0,.064.032a11.013,11.013,0,0,0,.9,4.221.445.445,0,0,1-.129.1c-.548.354-1.1.741-1.643,1.128a.7.7,0,0,0-.161.129,12.9,12.9,0,0,0,2.449,3.544l.032-.032c.58-.419,1.192-.805,1.772-1.224a.244.244,0,0,1,.129-.064,10.709,10.709,0,0,0,3.576,2.32.409.409,0,0,1-.032.193c-.161.709-.258,1.385-.419,2.094V30.2a13.817,13.817,0,0,0,2.062.548h0a15.876,15.876,0,0,0,2.126.226v-.032c.129-.709.258-1.385.387-2.094a.458.458,0,0,1,.064-.193,10.826,10.826,0,0,0,4.189-.87.445.445,0,0,1,.1.129c.387.612.805,1.192,1.224,1.8l.032.032a13.451,13.451,0,0,0,3.576-2.416C25.557,27.273,25.493,27.24,25.46,27.144ZM23.012,18.9a6.523,6.523,0,0,1-.29,1.063,6.7,6.7,0,0,1-1.708,2.578,6.375,6.375,0,0,1-1.8,1.224,6.753,6.753,0,0,1-3,.612,4,4,0,0,1-1.063-.129,5.417,5.417,0,0,1-1.031-.29,6.623,6.623,0,0,1-2.578-1.675,5.772,5.772,0,0,1-1.224-1.8,6.491,6.491,0,0,1-.644-3.029,4.242,4.242,0,0,1,.129-1.1,6.523,6.523,0,0,1,.29-1.063,6.645,6.645,0,0,1,3.48-3.8,6.753,6.753,0,0,1,3-.612A4,4,0,0,1,17.631,11a5.417,5.417,0,0,1,1.031.29,6.623,6.623,0,0,1,2.578,1.675,7.574,7.574,0,0,1,1.257,1.8,7.253,7.253,0,0,1,.644,3C23.108,18.154,23.076,18.541,23.012,18.9Z"/><path class="b" d="M40.048,37.067a3.06,3.06,0,0,0-1.192-.773,2.685,2.685,0,0,0-.483-.129c-.161-.032-.322-.032-.483-.064a3.337,3.337,0,0,0-1.385.29,2.452,2.452,0,0,0-.838.58,3.06,3.06,0,0,0-.773,1.192,2.685,2.685,0,0,0-.129.483,2.5,2.5,0,0,0-.064.516,3.337,3.337,0,0,0,.29,1.385,2.8,2.8,0,0,0,.58.838,3.317,3.317,0,0,0,1.192.773,2.684,2.684,0,0,0,.483.129c.161.032.322.032.483.064a3.337,3.337,0,0,0,1.385-.29,3.406,3.406,0,0,0,.838-.548,2.941,2.941,0,0,0,.773-1.192,2.684,2.684,0,0,0,.129-.483,2.5,2.5,0,0,0,.064-.516,3.337,3.337,0,0,0-.29-1.385A3.415,3.415,0,0,0,40.048,37.067ZM63.794,55.593c-.451-.1-.9-.193-1.385-.258-.064,0-.1-.032-.129-.032a7.353,7.353,0,0,0-.58-2.771,1.227,1.227,0,0,1,.193-.161c.354-.258.741-.516,1.1-.741a9.261,9.261,0,0,0-1.643-2.384c-.387.258-.773.516-1.16.805-.064.032-.1.064-.129.064a7.423,7.423,0,0,0-2.384-1.547v-.1a5.947,5.947,0,0,0,.129-.741h0a6.665,6.665,0,0,1,.129-.709h0a9.763,9.763,0,0,0-1.385-.387h0a10.61,10.61,0,0,0-1.418-.161h0c-.032.226-.1.451-.129.709h0c-.032.258-.1.483-.129.741a.118.118,0,0,1-.032.1,7.353,7.353,0,0,0-2.771.58.445.445,0,0,1-.1-.129c-.258-.387-.548-.773-.805-1.16a9.261,9.261,0,0,0-2.384,1.643c.258.354.516.741.773,1.1a1.907,1.907,0,0,0,.129.193A7.644,7.644,0,0,0,48.136,52.6h-.161c-.451-.1-.9-.193-1.385-.258h-.032a9.106,9.106,0,0,0-.387,1.418,11.087,11.087,0,0,0-.161,1.45h.064c.483.1.967.193,1.45.258h.064a6.847,6.847,0,0,0,.612,2.8l-.064.064c-.387.258-.741.483-1.1.741a.244.244,0,0,1-.129.064,8.582,8.582,0,0,0,1.643,2.352.032.032,0,0,0,.032-.032c.387-.29.805-.548,1.192-.805a.118.118,0,0,1,.1-.032,7.423,7.423,0,0,0,2.384,1.547v.129c-.1.451-.161.934-.258,1.385v.032a9.764,9.764,0,0,0,1.385.387h0a10.61,10.61,0,0,0,1.418.161v-.032c.064-.451.193-.934.258-1.385,0-.032.032-.1.032-.129a7.518,7.518,0,0,0,2.8-.58l.064.064c.258.387.548.805.805,1.192a.032.032,0,0,0,.032.032,10.013,10.013,0,0,0,2.384-1.611c-.032-.032-.032-.064-.064-.129-.258-.354-.483-.741-.741-1.1-.032-.032-.032-.064-.064-.1a7.308,7.308,0,0,0,1.579-2.416h.064c.483.1.967.161,1.45.258h.064a9.763,9.763,0,0,0,.387-1.385,6.052,6.052,0,0,1-.064-1.353Zm-4.446.644a2.56,2.56,0,0,1-.193.709,4.176,4.176,0,0,1-1.128,1.708,4.856,4.856,0,0,1-1.192.805,4.205,4.205,0,0,1-2,.419,5.269,5.269,0,0,1-.709-.064,2.344,2.344,0,0,1-.677-.193,3.88,3.88,0,0,1-1.708-1.128,5.279,5.279,0,0,1-.838-1.192,4.254,4.254,0,0,1-.419-2.03,6.291,6.291,0,0,1,.064-.741,2.56,2.56,0,0,1,.193-.709,4.176,4.176,0,0,1,1.128-1.708,4.588,4.588,0,0,1,1.224-.838,4.205,4.205,0,0,1,2-.419,5.269,5.269,0,0,1,.709.064,2.905,2.905,0,0,1,.709.193,3.879,3.879,0,0,1,1.708,1.128,4.992,4.992,0,0,1,.838,1.192,4.205,4.205,0,0,1,.419,2C59.412,55.754,59.38,56.012,59.348,56.237Z" transform="translate(-21.759 -21.96)"/><path class="b" d="M94.644,90.244a2.5,2.5,0,0,0-.773-.516c-.1-.032-.193-.064-.322-.1a1.1,1.1,0,0,0-.322-.032,2.311,2.311,0,0,0-.934.193,2.117,2.117,0,0,0-.548.387,2.04,2.04,0,0,0-.516.773c-.032.1-.064.226-.1.322a1.1,1.1,0,0,0-.032.322,2.311,2.311,0,0,0,.193.934,2.117,2.117,0,0,0,.387.548,2.5,2.5,0,0,0,.773.516c.1.032.193.064.322.1a1.1,1.1,0,0,0,.322.032,2.311,2.311,0,0,0,.934-.193,2.117,2.117,0,0,0,.548-.387,1.928,1.928,0,0,0,.516-.805c.032-.1.064-.226.1-.322a1.1,1.1,0,0,0,.032-.322,2.311,2.311,0,0,0-.193-.934A2.689,2.689,0,0,0,94.644,90.244Z" transform="translate(-59.921 -58.142)"/></g></g></svg>