<svg xmlns="http://www.w3.org/2000/svg" width="90" height="90" viewBox="0 0 90 90">
  <g id="Group_11973" data-name="Group 11973" transform="translate(-1031 -1318)">
    <circle id="Ellipse_350" data-name="Ellipse 350" cx="45" cy="45" r="45" transform="translate(1031 1318)" fill="#26d9c7" opacity="0.1"/>
    <g id="on-time" transform="translate(1001.628 1265.741)">
      <path id="Path_107822" data-name="Path 107822" d="M107.094,365.606a4.872,4.872,0,1,0,4.872,4.872,4.872,4.872,0,0,0-4.872-4.872Z" transform="translate(-47.897 -253.761)" fill="#26d9c7"/>
      <path id="Path_107823" data-name="Path 107823" d="M329.328,221.76a2.421,2.421,0,0,0-1.8-.762H318v8.489h18.446Z" transform="translate(-235.754 -128.383)" fill="#26d9c7"/>
      <path id="Path_107824" data-name="Path 107824" d="M107.956,92.559a9.815,9.815,0,1,0-9.815-9.815A9.815,9.815,0,0,0,107.956,92.559Zm-.815-16.7a.8.8,0,1,1,1.592,0V82.4l3.3,3.08a.793.793,0,1,1-1.08,1.162l-3.55-3.316a.8.8,0,0,1-.261-.581Z" transform="translate(-44.358 0)" fill="#13b59c"/>
      <path id="Path_107825" data-name="Path 107825" d="M77.659,156H74.947a11.407,11.407,0,0,1-22.7,0H49.48A2.435,2.435,0,0,0,47,158.393v27.043a2.44,2.44,0,0,0,2.48,2.4h3.3a6.462,6.462,0,0,1,12.826,0H80.137V158.393A2.434,2.434,0,0,0,77.659,156Z" transform="translate(0 -71.957)" fill="#26d9c7"/>
      <path id="Path_107826" data-name="Path 107826" d="M318,310.131h2.386a6.462,6.462,0,0,1,12.826,0h1.805a2.44,2.44,0,0,0,2.48-2.4V297H318Z" transform="translate(-235.754 -194.255)" fill="#26d9c7"/>
      <circle id="Ellipse_349" data-name="Ellipse 349" cx="4.872" cy="4.872" r="4.872" transform="translate(86.173 111.845)" fill="#26d9c7"/>
    </g>
  </g>
</svg>
