<svg xmlns="http://www.w3.org/2000/svg" width="54" height="54" viewBox="0 0 54 54"><defs><style>.a{fill:#f5fffd;}.b{fill:none;}.c{fill:#13b59c;}</style></defs><g transform="translate(-1014 -1142)"><circle class="a" cx="27" cy="27" r="27" transform="translate(1014 1142)"/><g transform="translate(1024.529 1152.528)"><path class="b" d="M0,0H32.943V32.943H0ZM0,0H32.943V32.943H0Z"/><path class="c" d="M17.636,2.225l-7.6,7.6a2.742,2.742,0,0,0-.8,1.935V25.478a2.753,2.753,0,0,0,2.745,2.745H24.335a2.765,2.765,0,0,0,2.526-1.661l4.475-10.446a4.124,4.124,0,0,0-3.788-5.738H19.791l1.3-6.287a2.07,2.07,0,0,0-.563-1.88A2.042,2.042,0,0,0,17.636,2.225Zm-13.891,26A2.753,2.753,0,0,0,6.49,25.478V14.5A2.745,2.745,0,0,0,1,14.5V25.478A2.753,2.753,0,0,0,3.745,28.223Z" transform="translate(0.373 0.602)"/></g></g></svg>