<svg xmlns="http://www.w3.org/2000/svg" width="54" height="54" viewBox="0 0 54 54"><defs><style>.a{fill:#fff;}.b{fill:#13b59c;}.c{fill:#128976;}</style></defs><g transform="translate(-114 -1142)"><circle class="a" cx="27" cy="27" r="27" transform="translate(114 1142)"/><g transform="translate(123.259 1150.806)"><path class="b" d="M4.37,7.067A1.129,1.129,0,0,0,3.5,8.173v9.334A18.241,18.241,0,0,0,17.723,35.3h.017A18.242,18.242,0,0,0,31.981,17.507V8.214A1.129,1.129,0,0,0,31.061,7.1a26.886,26.886,0,0,1-7.528-2.6,26.8,26.8,0,0,1-4.454-2.926,2.257,2.257,0,0,0-2.773-.017A31.86,31.86,0,0,1,11.9,4.313,31.933,31.933,0,0,1,4.37,7.067Z" transform="translate(0)"/><path class="c" d="M7.364,9.139a1.128,1.128,0,0,0-.864,1.1V17.12A13.863,13.863,0,0,0,17.31,30.642h.013A13.863,13.863,0,0,0,28.146,17.118V10.283a1.132,1.132,0,0,0-.911-1.115A20.423,20.423,0,0,1,21.728,7.23a20.379,20.379,0,0,1-3.722-2.5,1.106,1.106,0,0,0-1.4-.028A24.222,24.222,0,0,1,12.88,7.09,24.266,24.266,0,0,1,7.364,9.139Z" transform="translate(0.418 0.471)"/><path class="a" d="M19.266,14.7a.57.57,0,0,1-.57-.57V12.418a2.278,2.278,0,1,0-4.557,0v1.709a.57.57,0,1,1-1.139,0V12.418a3.418,3.418,0,1,1,6.835,0v1.709A.57.57,0,0,1,19.266,14.7Z" transform="translate(1.323 1.101)"/><rect class="a" width="10.253" height="7.975" rx="1" transform="translate(12.614 15.228)"/><circle class="c" cx="1.709" cy="1.709" r="1.709" transform="translate(16.032 17.507)"/></g></g></svg>