<svg xmlns="http://www.w3.org/2000/svg" width="90" height="90" viewBox="0 0 90 90">
  <g id="Group_11977" data-name="Group 11977" transform="translate(-1031 -1318)">
    <circle id="Ellipse_350" data-name="Ellipse 350" cx="45" cy="45" r="45" transform="translate(1031 1318)" fill="#26d9c7" opacity="0.1"/>
    <g id="live-streaming" transform="translate(1052 1337.999)">
      <path id="Path_107827" data-name="Path 107827" d="M212.862,90.674a3.231,3.231,0,1,1,0-4.564A3.238,3.238,0,0,1,212.862,90.674Zm0,0" transform="translate(-186.571 -76.678)" fill="#13b59c"/>
      <path id="Path_107828" data-name="Path 107828" d="M293.341,59.844a1.537,1.537,0,0,1-1.086-2.625,6.422,6.422,0,0,0,0-9.1,1.537,1.537,0,1,1,2.171-2.176,9.5,9.5,0,0,1,0,13.447A1.531,1.531,0,0,1,293.341,59.844Zm0,0" transform="translate(-262.577 -40.973)" fill="#13b59c"/>
      <path id="Path_107829" data-name="Path 107829" d="M328.294,23.4a1.537,1.537,0,0,1-1.086-2.625,12.812,12.812,0,0,0,0-18.145A1.537,1.537,0,1,1,329.379.452a15.887,15.887,0,0,1,0,22.5A1.532,1.532,0,0,1,328.294,23.4Zm0,0" transform="translate(-294.019 -0.002)" fill="#13b59c"/>
      <path id="Path_107830" data-name="Path 107830" d="M137.278,59.843a1.533,1.533,0,0,1-1.086-.449,9.5,9.5,0,0,1,0-13.447,1.537,1.537,0,1,1,2.171,2.176,6.422,6.422,0,0,0,0,9.1,1.537,1.537,0,0,1-1.085,2.625Zm0,0" transform="translate(-120.041 -40.971)" fill="#13b59c"/>
      <path id="Path_107831" data-name="Path 107831" d="M85.32,23.4a1.531,1.531,0,0,1-1.086-.449,15.887,15.887,0,0,1,0-22.5,1.537,1.537,0,0,1,2.171,2.176,12.812,12.812,0,0,0,0,18.146A1.537,1.537,0,0,1,85.32,23.4Zm0,0" transform="translate(-71.595 0)" fill="#13b59c"/>
      <path id="Path_107832" data-name="Path 107832" d="M44.383,261.938H3.618A3.606,3.606,0,0,0,0,265.532v17.681a3.606,3.606,0,0,0,3.618,3.6H44.382a3.606,3.606,0,0,0,3.618-3.6V265.532A3.606,3.606,0,0,0,44.383,261.938ZM11.9,282.2H6.2a1.542,1.542,0,0,1-1.546-1.537V268.087a1.546,1.546,0,0,1,3.093,0v11.035H11.9a1.537,1.537,0,1,1,0,3.074Zm6.338-1.537a1.547,1.547,0,0,1-3.093,0V268.087a1.547,1.547,0,0,1,3.093,0Zm13.012-12.127L27.427,281.1v0a1.571,1.571,0,0,1-2.959,0v0l-3.819-12.571a1.546,1.546,0,0,1,2.961-.889l2.339,7.7,2.339-7.7a1.546,1.546,0,0,1,2.961.889Zm9.514,3.513a1.537,1.537,0,1,1,0,3.074H36.371v4h5.222a1.537,1.537,0,1,1,0,3.074H34.825a1.542,1.542,0,0,1-1.547-1.537V268.087a1.542,1.542,0,0,1,1.547-1.537H41.8a1.537,1.537,0,1,1,0,3.074h-5.43v2.42Zm0,0" transform="translate(0 -235.808)" fill="#26d9c7"/>
    </g>
  </g>
</svg>
