<svg xmlns="http://www.w3.org/2000/svg" xmlns:xlink="http://www.w3.org/1999/xlink" width="770" height="512" viewBox="0 0 770 512">
  <defs>
    <filter id="Line_199" x="100.5" y="311" width="569" height="10" filterUnits="userSpaceOnUse">
      <feOffset input="SourceAlpha"/>
      <feGaussianBlur stdDeviation="1.5" result="blur"/>
      <feFlood flood-opacity="0.161"/>
      <feComposite operator="in" in2="blur"/>
      <feComposite in="SourceGraphic"/>
    </filter>
  </defs>
  <g id="Group_12615" data-name="Group 12615" transform="translate(-597.5 -342.475)">
    <g id="Subtraction_1" data-name="Subtraction 1" transform="translate(-4081 7908.001)" fill="#fff">
      <path d="M 5440.5009765625 -7054.025390625 L 4686.5 -7054.025390625 C 4682.36474609375 -7054.025390625 4679.00048828125 -7057.38916015625 4679.00048828125 -7061.5244140625 L 4679.00048828125 -7224.02978515625 C 4683.00439453125 -7224.080078125 4686.89013671875 -7224.74853515625 4690.55810546875 -7226.01806640625 C 4694.25244140625 -7227.29638671875 4697.57177734375 -7229.1279296875 4700.423828125 -7231.46142578125 C 4703.283203125 -7233.80078125 4705.52880859375 -7236.52685546875 4707.099609375 -7239.5654296875 C 4708.72998046875 -7242.71826171875 4709.556640625 -7246.06982421875 4709.556640625 -7249.52587890625 C 4709.556640625 -7252.98193359375 4708.72998046875 -7256.33349609375 4707.099609375 -7259.486328125 C 4705.529296875 -7262.5244140625 4703.283203125 -7265.2509765625 4700.423828125 -7267.59033203125 C 4697.57080078125 -7269.9248046875 4694.25146484375 -7271.755859375 4690.55810546875 -7273.03369140625 C 4686.89013671875 -7274.302734375 4683.00439453125 -7274.97119140625 4679.00048828125 -7275.0224609375 L 4679.00048828125 -7557.52490234375 C 4679.00048828125 -7561.6611328125 4682.36474609375 -7565.02587890625 4686.5 -7565.02587890625 L 5440.5009765625 -7565.02587890625 C 5444.63623046875 -7565.02587890625 5448 -7561.6611328125 5448 -7557.52490234375 L 5448 -7275.02197265625 C 5443.99658203125 -7274.9716796875 5440.11083984375 -7274.30322265625 5436.44287109375 -7273.03369140625 C 5432.74951171875 -7271.755859375 5429.43017578125 -7269.9248046875 5426.5771484375 -7267.59033203125 C 5423.7177734375 -7265.2509765625 5421.4716796875 -7262.5244140625 5419.9013671875 -7259.486328125 C 5418.27099609375 -7256.33349609375 5417.4443359375 -7252.98193359375 5417.4443359375 -7249.52587890625 C 5417.4443359375 -7246.06982421875 5418.27099609375 -7242.71826171875 5419.9013671875 -7239.5654296875 C 5421.47216796875 -7236.52685546875 5423.7177734375 -7233.80078125 5426.5771484375 -7231.46142578125 C 5429.42919921875 -7229.1279296875 5432.74853515625 -7227.29638671875 5436.44287109375 -7226.01806640625 C 5440.1103515625 -7224.7490234375 5443.99609375 -7224.08056640625 5448 -7224.029296875 L 5448 -7061.5244140625 C 5448 -7057.38916015625 5444.63623046875 -7054.025390625 5440.5009765625 -7054.025390625 Z" stroke="none"/>
      <path d="M 5440.5009765625 -7054.525390625 C 5444.3603515625 -7054.525390625 5447.5 -7057.6650390625 5447.5 -7061.5244140625 L 5447.5 -7223.53857421875 C 5443.61669921875 -7223.63720703125 5439.8466796875 -7224.31103515625 5436.279296875 -7225.5458984375 C 5432.529296875 -7226.84326171875 5429.158203125 -7228.70361328125 5426.26025390625 -7231.07470703125 C 5423.34814453125 -7233.45703125 5421.05908203125 -7236.23681640625 5419.45751953125 -7239.33544921875 C 5417.7900390625 -7242.560546875 5416.9443359375 -7245.9892578125 5416.9443359375 -7249.52587890625 C 5416.9443359375 -7253.06298828125 5417.7900390625 -7256.4912109375 5419.45751953125 -7259.7158203125 C 5421.05908203125 -7262.81494140625 5423.34814453125 -7265.5947265625 5426.26025390625 -7267.97705078125 C 5429.1591796875 -7270.34912109375 5432.5302734375 -7272.20947265625 5436.279296875 -7273.505859375 C 5439.84716796875 -7274.74072265625 5443.6171875 -7275.41455078125 5447.5 -7275.5126953125 L 5447.5 -7557.52490234375 C 5447.5 -7561.38525390625 5444.3603515625 -7564.52587890625 5440.5009765625 -7564.52587890625 L 4686.5 -7564.52587890625 C 4682.640625 -7564.52587890625 4679.50048828125 -7561.38525390625 4679.50048828125 -7557.52490234375 L 4679.50048828125 -7275.51318359375 C 4683.3837890625 -7275.41455078125 4687.15380859375 -7274.74072265625 4690.72119140625 -7273.505859375 C 4694.470703125 -7272.20947265625 4697.841796875 -7270.34912109375 4700.74072265625 -7267.97705078125 C 4703.65283203125 -7265.5947265625 4705.94189453125 -7262.81494140625 4707.54345703125 -7259.71630859375 C 4709.21142578125 -7256.4912109375 4710.056640625 -7253.06298828125 4710.056640625 -7249.52587890625 C 4710.056640625 -7245.9892578125 4709.21142578125 -7242.560546875 4707.54345703125 -7239.33544921875 C 4705.94189453125 -7236.23681640625 4703.65283203125 -7233.45703125 4700.74072265625 -7231.07470703125 C 4697.8427734375 -7228.70361328125 4694.4716796875 -7226.84326171875 4690.7216796875 -7225.5458984375 C 4687.15380859375 -7224.310546875 4683.3837890625 -7223.63720703125 4679.50048828125 -7223.53955078125 L 4679.50048828125 -7061.5244140625 C 4679.50048828125 -7057.6650390625 4682.640625 -7054.525390625 4686.5 -7054.525390625 L 5440.5009765625 -7054.525390625 M 5440.5009765625 -7053.525390625 L 4686.5 -7053.525390625 C 4682.0888671875 -7053.525390625 4678.50048828125 -7057.11376953125 4678.50048828125 -7061.5244140625 L 4678.50048828125 -7224.52587890625 L 4678.5107421875 -7224.52685546875 C 4682.630859375 -7224.52685546875 4686.62939453125 -7225.1875 4690.39453125 -7226.49072265625 C 4694.03369140625 -7227.75 4697.30126953125 -7229.552734375 4700.107421875 -7231.8486328125 C 4702.9130859375 -7234.14404296875 4705.1162109375 -7236.8173828125 4706.6552734375 -7239.794921875 C 4708.24853515625 -7242.8759765625 4709.056640625 -7246.150390625 4709.056640625 -7249.52587890625 C 4709.056640625 -7252.9013671875 4708.24853515625 -7256.17578125 4706.6552734375 -7259.2568359375 C 4705.1162109375 -7262.234375 4702.9130859375 -7264.90771484375 4700.107421875 -7267.203125 C 4697.30029296875 -7269.5 4694.03271484375 -7271.302734375 4690.39453125 -7272.56103515625 C 4686.626953125 -7273.86474609375 4682.625 -7274.52587890625 4678.50048828125 -7274.52587890625 L 4678.50048828125 -7557.52490234375 C 4678.50048828125 -7561.9365234375 4682.0888671875 -7565.52587890625 4686.5 -7565.52587890625 L 5440.5009765625 -7565.52587890625 C 5444.91162109375 -7565.52587890625 5448.5 -7561.9365234375 5448.5 -7557.52490234375 L 5448.5 -7274.52587890625 L 5448.48974609375 -7274.52490234375 C 5444.3701171875 -7274.52490234375 5440.37158203125 -7273.8642578125 5436.6064453125 -7272.56103515625 C 5432.96826171875 -7271.302734375 5429.70068359375 -7269.5 5426.8935546875 -7267.203125 C 5424.087890625 -7264.90771484375 5421.884765625 -7262.234375 5420.345703125 -7259.2568359375 C 5418.75244140625 -7256.17578125 5417.9443359375 -7252.9013671875 5417.9443359375 -7249.52587890625 C 5417.9443359375 -7246.150390625 5418.75244140625 -7242.8759765625 5420.345703125 -7239.794921875 C 5421.884765625 -7236.8173828125 5424.087890625 -7234.14404296875 5426.8935546875 -7231.8486328125 C 5429.69970703125 -7229.552734375 5432.96728515625 -7227.75 5436.6064453125 -7226.49072265625 C 5440.37353515625 -7225.18701171875 5444.375 -7224.52587890625 5448.5 -7224.52587890625 L 5448.5 -7061.5244140625 C 5448.5 -7057.11376953125 5444.91162109375 -7053.525390625 5440.5009765625 -7053.525390625 Z" stroke="none" fill="#e5e5e5"/>
    </g>
    <g transform="matrix(1, 0, 0, 1, 597.5, 342.48)" filter="url(#Line_199)">
      <line id="Line_199-2" data-name="Line 199" x2="560" transform="translate(105 316)" fill="none" stroke="#1c1c1c" stroke-width="1" stroke-dasharray="6" opacity="0.4"/>
    </g>
  </g>
</svg>
