<svg xmlns="http://www.w3.org/2000/svg" width="54" height="54" viewBox="0 0 54 54"><defs><style>.a{fill:#fff;}.b{fill:#13b59c;}.c{fill:#0f6c5d;}</style></defs><g transform="translate(-1014 -1142)"><circle class="a" cx="27" cy="27" r="27" transform="translate(1014 1142)"/><g transform="translate(1025 1153)"><path class="b" d="M31.37,16c0,1.564-1.945,2.8-2.4,4.214-.475,1.463.355,3.6-.531,4.822s-3.194,1.1-4.424,1.993-1.8,3.118-3.261,3.593c-1.411.458-3.187-.991-4.751-.991s-3.339,1.45-4.751.991c-1.463-.475-2.043-2.707-3.261-3.593s-3.529-.763-4.424-1.993-.056-3.359-.531-4.822C2.575,18.8.63,17.564.63,16s1.945-2.8,2.4-4.214c.475-1.463-.355-3.6.531-4.822s3.194-1.1,4.424-1.993,1.8-3.118,3.261-3.593C12.661.92,14.436,2.37,16,2.37s3.339-1.45,4.751-.991c1.463.475,2.043,2.707,3.261,3.593s3.529.763,4.424,1.993.056,3.359.531,4.822C29.425,13.2,31.37,14.436,31.37,16Z"/><circle class="c" cx="10.5" cy="10.5" r="10.5" transform="translate(5.5 5.5)"/><path class="a" d="M17.028,11.781l.742,1.5a1.147,1.147,0,0,0,.863.627l1.66.241a1.147,1.147,0,0,1,.635,1.956l-1.2,1.171A1.147,1.147,0,0,0,19.4,18.3l.284,1.653a1.147,1.147,0,0,1-1.664,1.209l-1.485-.781a1.147,1.147,0,0,0-1.067,0l-1.485.781a1.147,1.147,0,0,1-1.664-1.209L12.6,18.3a1.147,1.147,0,0,0-.33-1.015l-1.2-1.171a1.147,1.147,0,0,1,.635-1.956l1.66-.241a1.147,1.147,0,0,0,.863-.627l.742-1.5a1.147,1.147,0,0,1,2.058-.009Z"/></g></g></svg>