<svg xmlns="http://www.w3.org/2000/svg" width="54" height="54" viewBox="0 0 54 54"><defs><style>.a{fill:#fff;}.b{fill:#13b59c;}.c{fill:#0e8976;}</style></defs><g transform="translate(-114 -1142)"><circle class="a" cx="27" cy="27" r="27" transform="translate(114 1142)"/><g transform="translate(-2.395 -1.635)"><path class="b" d="M26.11,25.008V32.56A2.211,2.211,0,0,1,23.9,34.771h-21A2.211,2.211,0,0,1,.683,32.56V2.711A2.211,2.211,0,0,1,2.894.5H18.371L26.11,8.239Z" transform="translate(129.999 1153)"/><path class="a" d="M18.055,3.5H4.789A1.106,1.106,0,0,0,3.683,4.606V6.817A1.106,1.106,0,0,0,4.789,7.922H20.266ZM14.738,31.607a3.052,3.052,0,0,1-1.759-.521,2.129,2.129,0,0,0-2.38,0,3.052,3.052,0,0,1-1.759.521,3.042,3.042,0,0,1-1.757-.522A1.966,1.966,0,0,0,5.9,30.722a.553.553,0,1,1,0-1.106,3.042,3.042,0,0,1,1.757.522A1.966,1.966,0,0,0,8.84,30.5a1.968,1.968,0,0,0,1.19-.359,3.231,3.231,0,0,1,3.519,0,1.968,1.968,0,0,0,1.191.364.553.553,0,1,1,0,1.105Z" transform="translate(130.315 1153.317)"/><rect class="a" width="2.211" height="2.211" rx="1" transform="translate(133.998 1164.555)"/><rect class="a" width="2.211" height="2.211" rx="1" transform="translate(133.998 1170.083)"/><rect class="a" width="2.211" height="2.211" rx="1" transform="translate(133.998 1175.61)"/><path class="a" d="M22,13.317H8.736a.553.553,0,1,1,0-1.106H22a.553.553,0,1,1,0,1.106Zm0-2.211H8.736a.553.553,0,1,1,0-1.106H22a.553.553,0,1,1,0,1.106Zm0,5.528H8.736a.553.553,0,1,1,0-1.105H22a.553.553,0,1,1,0,1.105Zm0,2.211H8.736a.553.553,0,1,1,0-1.106H22a.553.553,0,1,1,0,1.106ZM17.58,22.161H8.736a.553.553,0,1,1,0-1.105H17.58a.553.553,0,1,1,0,1.105Zm0,2.211H8.736a.553.553,0,1,1,0-1.106H17.58a.553.553,0,1,1,0,1.106Z" transform="translate(130.79 1154.002)"/><path class="c" d="M24.422,8.239H18.894a2.211,2.211,0,0,1-2.211-2.211V.5Z" transform="translate(131.687 1153)"/></g></g></svg>