<svg xmlns="http://www.w3.org/2000/svg" width="54" height="54" viewBox="0 0 54 54"><defs><style>.a,.c{fill:#fff;}.b{fill:#13b59c;}.c{fill-rule:evenodd;}</style></defs><g transform="translate(-714 -1142)"><circle class="a" cx="27" cy="27" r="27" transform="translate(714 1142)"/><path class="b" d="M29.339,2H9.764A3.764,3.764,0,0,0,6,5.764V19.316a.753.753,0,0,0,.753.753h5.27v14.3a.753.753,0,0,0,1.137.647l3.335-2,2.6,1.957a.753.753,0,0,0,.9,0l2.56-1.927,2.628,1.89a.753.753,0,0,0,.888,0l2.545-1.912,3.335,2a.753.753,0,0,0,1.144-.655V5.764A3.764,3.764,0,0,0,29.339,2ZM7.506,18.563V5.764a2.259,2.259,0,0,1,4.517,0v12.8ZM29.339,29.1H15.787V27.6H29.339Zm0-4.517H15.787V23.08H29.339Zm-6.776-4.517a6.776,6.776,0,1,1,6.776-6.776A6.776,6.776,0,0,1,22.563,20.069Zm0-12.046a5.27,5.27,0,1,0,5.27,5.27A5.27,5.27,0,0,0,22.563,8.023Z" transform="translate(721.448 1150.431)"/><path class="c" d="M7.149,3.716H5.358a.358.358,0,0,1,0-.716h4.3a.358.358,0,1,1,0,.716H8.581a1.78,1.78,0,0,1,.322.716h.752a.358.358,0,1,1,0,.716H8.9A1.791,1.791,0,0,1,7.149,6.581h-.21L9.192,8.835a.358.358,0,0,1-.506.506L5.821,6.476a.358.358,0,0,1,.253-.611H7.149a1.075,1.075,0,0,0,1.013-.716h-2.8a.358.358,0,0,1,0-.716h2.8A1.075,1.075,0,0,0,7.149,3.716Z" transform="translate(736.279 1157.502)"/></g></svg>