<svg id="Group_12633" data-name="Group 12633" xmlns="http://www.w3.org/2000/svg" width="107" height="20" viewBox="0 0 107 20">
  <path id="Path_108131" data-name="Path 108131" d="M4,0H107L96,10.118,107,20H0V4A4,4,0,0,1,4,0Z" fill="#e84934"/>
  <path id="Path_108132" data-name="Path 108132" d="M-41.63-3.54a4,4,0,0,1,.285-1.54,3.378,3.378,0,0,1,.795-1.175A3.5,3.5,0,0,1-39.34-7a4.362,4.362,0,0,1,1.53-.26A4.362,4.362,0,0,1-36.28-7a3.5,3.5,0,0,1,1.21.745,3.378,3.378,0,0,1,.795,1.175,4,4,0,0,1,.285,1.54A4,4,0,0,1-34.275-2,3.378,3.378,0,0,1-35.07-.825a3.5,3.5,0,0,1-1.21.745,4.362,4.362,0,0,1-1.53.26,4.362,4.362,0,0,1-1.53-.26,3.5,3.5,0,0,1-1.21-.745A3.378,3.378,0,0,1-41.345-2,4,4,0,0,1-41.63-3.54Zm1.62,0a2.6,2.6,0,0,0,.155.915,2.1,2.1,0,0,0,.445.72,2.031,2.031,0,0,0,.695.475,2.317,2.317,0,0,0,.9.17,2.317,2.317,0,0,0,.9-.17,2.031,2.031,0,0,0,.695-.475,2.1,2.1,0,0,0,.445-.72,2.6,2.6,0,0,0,.155-.915,2.608,2.608,0,0,0-.155-.91,2.086,2.086,0,0,0-.445-.725,2.031,2.031,0,0,0-.695-.475,2.317,2.317,0,0,0-.9-.17,2.317,2.317,0,0,0-.9.17,2.031,2.031,0,0,0-.695.475,2.086,2.086,0,0,0-.445.725A2.608,2.608,0,0,0-40.01-3.54Zm7.38-3.54h2.12l3.01,4.92h.02V-7.08h1.56V0h-2.04l-3.09-5.04h-.02V0h-1.56Zm8.51,0h4.81v1.44h-3.25v1.32h3.07v1.44h-3.07v1.44h3.43V0h-4.99ZM-12.95-5.7h-2.02V-7.08h5.6V-5.7h-2.02V0h-1.56ZM-8.3-7.08h1.56V0H-8.3Zm3.28,0h2.36l1.63,4.62h.02L.63-7.08H2.98V0H1.42V-5.43H1.4L-.46,0H-1.65L-3.44-5.43h-.02V0H-5.02Zm9.8,0H9.59v1.44H6.34v1.32H9.41v1.44H6.34v1.44H9.77V0H4.78ZM14.2-3.54a4,4,0,0,1,.285-1.54,3.378,3.378,0,0,1,.8-1.175A3.5,3.5,0,0,1,16.49-7a4.362,4.362,0,0,1,1.53-.26A4.362,4.362,0,0,1,19.55-7a3.5,3.5,0,0,1,1.21.745,3.378,3.378,0,0,1,.8,1.175,4,4,0,0,1,.285,1.54A4,4,0,0,1,21.555-2a3.378,3.378,0,0,1-.8,1.175,3.5,3.5,0,0,1-1.21.745,4.362,4.362,0,0,1-1.53.26,4.362,4.362,0,0,1-1.53-.26,3.5,3.5,0,0,1-1.21-.745A3.378,3.378,0,0,1,14.485-2,4,4,0,0,1,14.2-3.54Zm1.62,0a2.6,2.6,0,0,0,.155.915,2.1,2.1,0,0,0,.445.72,2.031,2.031,0,0,0,.7.475,2.317,2.317,0,0,0,.9.17,2.317,2.317,0,0,0,.905-.17,2.031,2.031,0,0,0,.695-.475,2.1,2.1,0,0,0,.445-.72,2.6,2.6,0,0,0,.155-.915,2.608,2.608,0,0,0-.155-.91,2.086,2.086,0,0,0-.445-.725,2.031,2.031,0,0,0-.695-.475,2.317,2.317,0,0,0-.905-.17,2.317,2.317,0,0,0-.9.17,2.031,2.031,0,0,0-.7.475,2.086,2.086,0,0,0-.445.725A2.608,2.608,0,0,0,15.82-3.54ZM23.2-7.08h2.12l3.01,4.92h.02V-7.08h1.56V0H27.87L24.78-5.04h-.02V0H23.2Zm8.51,0h1.56v5.64h2.89V0H31.71Zm6.24,4.06L35.29-7.08h1.94l1.5,2.65,1.59-2.65h1.85L39.51-3.02V0H37.95Z" transform="translate(48 13)" fill="#fff"/>
</svg>
