<svg xmlns="http://www.w3.org/2000/svg" width="90" height="90" viewBox="0 0 90 90">
  <g id="Group_11972" data-name="Group 11972" transform="translate(-638 -1318)">
    <circle id="Ellipse_348" data-name="Ellipse 348" cx="45" cy="45" r="45" transform="translate(638 1318)" fill="#26d9c7" opacity="0.1"/>
    <g id="smartphone-money-pay_in-pay_out-security" data-name="smartphone-money-pay in-pay out-security" transform="translate(653.445 1334.445)">
      <path id="Path_107816" data-name="Path 107816" d="M16.277,18A12.277,12.277,0,1,0,28.553,30.277,12.277,12.277,0,0,0,16.277,18Zm-6.2,18.477-1.24,1.24a10.534,10.534,0,0,1,0-14.881l1.24,1.24a8.779,8.779,0,0,0,0,12.4Zm6.2-7.078a3.5,3.5,0,0,1,.877,6.891v1.878H15.4V36.291a3.508,3.508,0,0,1-2.631-3.383h1.754a1.754,1.754,0,1,0,1.754-1.754,3.5,3.5,0,0,1-.877-6.891V22.385h1.754v1.878a3.508,3.508,0,0,1,2.631,3.383H18.031A1.754,1.754,0,1,0,16.277,29.4Zm7.441,8.317-1.24-1.24a8.779,8.779,0,0,0,0-12.4l1.24-1.24a10.534,10.534,0,0,1,0,14.881Z" transform="translate(0 -1.722)" fill="#13b59c"/>
      <path id="Path_107817" data-name="Path 107817" d="M51.889,5.754,52.327,4H35.28l.438,1.754Z" transform="translate(-1.847 -0.123)" fill="#26d9c7"/>
      <path id="Path_107818" data-name="Path 107818" d="M39.485,27.34v2.5a4.358,4.358,0,0,0,1.285,3.1l3.977,3.977,3.978-3.977a4.361,4.361,0,0,0,1.284-3.1v-2.5l-5.261-2.255Zm8.769,1.8-3.508,3.508a.877.877,0,0,1-1.24,0l-1.754-1.754,1.24-1.24,1.134,1.134L47.014,27.9Z" transform="translate(-2.58 -2.596)" fill="#13b59c"/>
      <path id="Path_107819" data-name="Path 107819" d="M55.43,4H53.484l-.71,2.856a.878.878,0,0,1-.851.67H34.385a.878.878,0,0,1-.851-.67L32.824,4H30.877A.879.879,0,0,0,30,4.881v14.5a14.079,14.079,0,0,1,0,18.6v14.5a.879.879,0,0,0,.877.881H55.43a.879.879,0,0,0,.877-.881V4.881A.879.879,0,0,0,55.43,4ZM50.169,27.369a6.148,6.148,0,0,1-1.8,4.363l-4.6,4.62a.874.874,0,0,1-1.24,0l-4.6-4.62a6.148,6.148,0,0,1-1.8-4.363v-3.1a.881.881,0,0,1,.531-.81l6.138-2.644a.879.879,0,0,1,.691,0l6.138,2.644a.882.882,0,0,1,.531.81Z" transform="translate(-1.197 -0.123)" fill="#26d9c7"/>
      <path id="Path_107820" data-name="Path 107820" d="M10.261,9.138H22.538V5.631H10.261V3L5,7.385l5.261,4.385Z" transform="translate(-0.123)" fill="#26d9c7"/>
      <path id="Path_107821" data-name="Path 107821" d="M17.277,53.631H5v3.508H17.277v2.631l5.261-4.385L17.277,51Z" transform="translate(-0.123 -5.659)" fill="#13b59c"/>
    </g>
  </g>
</svg>
